<svg id="chemine" xmlns="http://www.w3.org/2000/svg" xmlns:xlink="http://www.w3.org/1999/xlink" width="41.09" height="39.6" viewBox="0 0 41.09 39.6">
  <defs>
    <clipPath id="clip-path">
      <rect id="Rectangle_198" data-name="Rectangle 198" width="41.09" height="39.6" transform="translate(0 0)" fill="none"/>
    </clipPath>
  </defs>
  <g id="Groupe_743" data-name="Groupe 743" clip-path="url(#clip-path)">
    <path id="Tracé_217" data-name="Tracé 217" d="M41.09,6.99V0H0V6.97H2V32.62H0V39.6H41.09V32.62H39.12V6.99ZM39.81,38.28H1.3V33.94H39.81Zm-14-23.92a9.758,9.758,0,0,0-5-1.37,10.217,10.217,0,0,0-1.89.17A10.808,10.808,0,0,0,9.85,24.02v8.57H3.33V7H37.79V32.59H31.37V29.15c.01-1.73.01-3.48,0-5.21a10.667,10.667,0,0,0-5.56-9.58m-.87,17.26a2.505,2.505,0,0,1,.11-.23,5.1,5.1,0,0,0-.71-6.34c-1.05-1.08-1.98-2.01-2.85-2.86l-.8-.8c-.34.31-.67.62-1,.94-1.09,1.02-2.14,2.02-3.09,3.06a5.07,5.07,0,0,0-.49,5.92c.05.07.1.17.17.28l.54,1h-5.6l-.05-.53c-.02-.2-.03-.3-.03-.38V27.61c-.01-1.25-.01-2.5,0-3.74a9.469,9.469,0,0,1,17.89-4.43,9.717,9.717,0,0,1,1.05,4.27v8.03a.9.9,0,0,1-.02.22l-.01.5-.55.15H24.49Zm-.53-1.85a4.088,4.088,0,0,1-2.28,2.53,3.733,3.733,0,0,1-1.5.31,3.979,3.979,0,0,1-1.66-.37,3.845,3.845,0,0,1-2.07-2.3,3.7,3.7,0,0,1,.77-3.82c.55-.6,1.13-1.15,1.75-1.73l.05-.05.33-.3c.17-.16.34-.33.52-.5l.45-.43.41.47c.12.13.24.26.37.39.17.18.34.36.5.55a15.618,15.618,0,0,1,1.99,2.37,3.457,3.457,0,0,1,.37,2.88M1.31,1.31H39.82V5.65H1.31Z" fill="#3e3e3e"/>
  </g>
</svg>
