<svg xmlns="http://www.w3.org/2000/svg" xmlns:xlink="http://www.w3.org/1999/xlink" width="39.81" height="40" viewBox="0 0 39.81 40">
  <defs>
    <clipPath id="clip-path">
      <rect id="Rectangle_194" data-name="Rectangle 194" width="39.81" height="40" fill="none"/>
    </clipPath>
  </defs>
  <g id="veranda" transform="translate(0 0)">
    <g id="Groupe_735" data-name="Groupe 735" transform="translate(0 0)" clip-path="url(#clip-path)">
      <path id="Tracé_207" data-name="Tracé 207" d="M1.464,35.225V24.984c-.27,0-.532.007-.794,0-.425-.013-.681-.245-.666-.59.015-.329.256-.532.673-.533q3.1-.005,6.2,0h.526c.009-.178.022-.333.023-.487,0-3.585-.046-7.172.011-10.756A12.136,12.136,0,0,1,14.448,1.3,12.428,12.428,0,0,1,32.056,9.772a15.085,15.085,0,0,1,.309,2.953c.035,3.532.013,7.063.013,10.595v.537h6.5c.121,0,.242,0,.362,0a.535.535,0,0,1,.557.522.542.542,0,0,1-.533.589c-.292.024-.586,0-.909,0V35.225c.285,0,.55-.006.816,0,.416.013.627.207.629.616q.013,1.773,0,3.545a.559.559,0,0,1-.6.609c-.106.006-.215,0-.322,0H.933C.12,40,0,39.882,0,39.074c0-1.033,0-2.068,0-3.1,0-.566.179-.742.745-.748.226,0,.45,0,.717,0M19.328,13.081H8.594V23.823H19.328Zm11.9,0H20.5V23.839H31.224Zm7.441,23.3H1.154v2.463H38.665ZM8.583,35.2H13.36v-10.2H8.583ZM19.308,25.015H14.546V35.21h4.762ZM20.489,35.2H25.27v-10.2H20.489ZM31.224,25.008H26.449V35.2h4.775ZM7.41,25.022H2.636V35.2H7.41Zm29.763-.01h-4.76V35.2h4.76ZM8.588,11.9h9.751Q14.911,8.47,11.413,4.972A11.2,11.2,0,0,0,8.588,11.9m12.837,0h9.8a11.207,11.207,0,0,0-2.848-6.946L21.425,11.9m-.938-.911,6.945-6.944a10.712,10.712,0,0,0-6.945-2.834ZM19.323,1.155a11.276,11.276,0,0,0-6.937,2.853Q15.9,7.527,19.323,10.95Z" transform="translate(0 0)" fill="#3e3e3e"/>
    </g>
  </g>
</svg>
