
<svg xmlns="http://www.w3.org/2000/svg" xmlns:xlink="http://www.w3.org/1999/xlink" width="39.015" height="40" viewBox="0 0 39.015 40">
    <defs>
      <clipPath id="clip-path">
        <rect id="Rectangle_195" data-name="Rectangle 195" width="39.015" height="40" fill="none"/>
      </clipPath>
    </defs>
    <g id="alarme" transform="translate(0 0)">
      <g id="Groupe_737" data-name="Groupe 737" transform="translate(0 0)" clip-path="url(#clip-path)">
        <path id="Tracé_208" data-name="Tracé 208" d="M33.845,34.412l.012-1.373c0-.578-.2-.795-.783-.795H30.232v-4q0-4.264-.012-8.54a13.708,13.708,0,0,0-.145-2A11.484,11.484,0,0,0,16.3,8.287a11.444,11.444,0,0,0-9.009,11.3V32.244H6.275c-.289.012-.578.012-.855,0-.638-.024-1.385-.036-1.59.169a3.055,3.055,0,0,0-.169,1.578c.036,1.156.036,2.288-.012,3.385-.024.578.145.831.446.988H33.424c.289-.157.458-.41.446-1-.024-.988-.024-1.975-.024-2.951M8.491,27.559q0-4.011.012-8.01A10.28,10.28,0,0,1,16.682,9.444a10.262,10.262,0,0,1,12.177,8.275,11.755,11.755,0,0,1,.157,1.771c.012,3,.012,5.986.012,8.985v3.758H8.491Zm24.137,9.563H4.89v-3.65H32.629Z" transform="translate(0.746 1.637)" fill="#3e3e3e"/>
        <path id="Tracé_209" data-name="Tracé 209" d="M16.835.674V5.324a.746.746,0,0,1-.2.554.535.535,0,0,1-.4.157h-.012c-.361,0-.59-.277-.59-.7-.012-1.542-.012-3.1,0-4.649A.612.612,0,0,1,16.221,0h.012a.61.61,0,0,1,.6.674" transform="translate(3.194 0)" fill="#3e3e3e"/>
        <path id="Tracé_210" data-name="Tracé 210" d="M5.383,11.969a.722.722,0,0,1-.325.662.6.6,0,0,1-.614-.024c-.867-.482-1.734-.988-2.6-1.494L.685,10.451c-.132-.072-.253-.145-.385-.229A.6.6,0,0,1,.083,9.4.6.6,0,0,1,.6,9.09a.586.586,0,0,1,.265.072c1.433.807,2.843,1.626,4.264,2.457a.5.5,0,0,1,.253.349" transform="translate(0 1.858)" fill="#3e3e3e"/>
        <path id="Tracé_211" data-name="Tracé 211" d="M33.291,9.835a.72.72,0,0,1-.313.4c-1.385.807-2.758,1.614-4.155,2.4a.583.583,0,0,1-.578.012.765.765,0,0,1-.325-.687.516.516,0,0,1,.289-.361c1.385-.807,2.77-1.614,4.167-2.409a.6.6,0,0,1,.831.2.55.55,0,0,1,.084.446" transform="translate(5.708 1.86)" fill="#3e3e3e"/>
        <path id="Tracé_212" data-name="Tracé 212" d="M26.438,3.026,26.4,3.11a1.406,1.406,0,0,1-.132.337c-.759,1.337-1.53,2.674-2.3,4a.779.779,0,0,1-.458.385.564.564,0,0,1-.434-.072.626.626,0,0,1-.169-.9c.783-1.349,1.554-2.71,2.349-4.059A.636.636,0,0,1,25.8,2.46a.439.439,0,0,1,.169.024.7.7,0,0,1,.47.542" transform="translate(4.66 0.503)" fill="#3e3e3e"/>
        <path id="Tracé_213" data-name="Tracé 213" d="M9.912,7.76a.579.579,0,0,1-.819-.229c-.819-1.385-1.626-2.77-2.409-4.155a.645.645,0,0,1-.012-.626A.6.6,0,0,1,7.2,2.46a.55.55,0,0,1,.506.289c.819,1.4,1.638,2.794,2.421,4.192a.592.592,0,0,1-.217.819" transform="translate(1.349 0.503)" fill="#3e3e3e"/>
      </g>
    </g>
  </svg>
  