<svg xmlns="http://www.w3.org/2000/svg" xmlns:xlink="http://www.w3.org/1999/xlink" width="32.713" height="32.713" viewBox="0 0 32.713 32.713"><script xmlns="" id="nimlmejbmnecnaghgmbahmbaddhjbecg"/><script xmlns=""/><script xmlns=""/><script xmlns=""/>
    <defs>
      <clipPath id="clip-path">
        <rect id="Rectangle_207" data-name="Rectangle 207" width="32.713" height="32.713" transform="translate(0 0)" fill="none"/>
      </clipPath>
    </defs>
    <g id="autre" transform="translate(0 0)">
      <g id="Groupe_753" data-name="Groupe 753" clip-path="url(#clip-path)">
        <circle id="Ellipse_7" data-name="Ellipse 7" cx="15.726" cy="15.726" r="15.726" transform="translate(0.63 0.631)" fill="none" stroke="#3e3e3e" stroke-linecap="round" stroke-linejoin="round" stroke-width="1.261"/>
        <path id="Tracé_239" data-name="Tracé 239" d="M12.063,16.357a.869.869,0,1,1-.869-.869A.869.869,0,0,1,12.063,16.357Z" fill="none" stroke="#3e3e3e" stroke-linecap="round" stroke-linejoin="round" stroke-width="1.261"/>
        <path id="Tracé_240" data-name="Tracé 240" d="M17.226,16.357a.869.869,0,1,1-.869-.869A.869.869,0,0,1,17.226,16.357Z" fill="none" stroke="#3e3e3e" stroke-linecap="round" stroke-linejoin="round" stroke-width="1.261"/>
        <path id="Tracé_241" data-name="Tracé 241" d="M22.389,16.357a.87.87,0,1,1-.869-.869A.869.869,0,0,1,22.389,16.357Z" fill="none" stroke="#3e3e3e" stroke-linecap="round" stroke-linejoin="round" stroke-width="1.261"/>
      </g>
    </g>
  <script xmlns=""/>
</svg>