<svg xmlns="http://www.w3.org/2000/svg" width="15.714" height="14.667" viewBox="0 0 15.714 14.667"><script xmlns="" id="nimlmejbmnecnaghgmbahmbaddhjbecg"/><script xmlns=""/><script xmlns=""/><script xmlns=""/>
    <g id="back" transform="translate(-7.125 -8.25)">
      <path id="Tracé_181" data-name="Tracé 181" d="M14.458,22.917a1.044,1.044,0,0,1-.741-.307L7.432,16.324a1.048,1.048,0,0,1,0-1.482l6.286-6.286A1.048,1.048,0,1,1,15.2,10.038L9.654,15.583,15.2,21.128a1.048,1.048,0,0,1-.741,1.788Z" transform="translate(0 0)"/>
      <path id="Tracé_182" data-name="Tracé 182" d="M22.794,23.845H10.048a1.048,1.048,0,1,1,0-2.1H22.794a1.048,1.048,0,1,1,0,2.1Z" transform="translate(-1.002 -7.214)"/>
    </g>
  <script xmlns=""/>
</svg>