
<svg xmlns="http://www.w3.org/2000/svg" xmlns:xlink="http://www.w3.org/1999/xlink" width="53.883" height="64.551" viewBox="0 0 53.883 64.551">
    <defs>
      <clipPath id="clip-path">
        <rect id="Rectangle_278" data-name="Rectangle 278" width="53.883" height="64.551" fill="none"/>
      </clipPath>
    </defs>
    <g id="civil" transform="translate(0 0)" opacity="0.6">
      <g id="Groupe_580" data-name="Groupe 580" transform="translate(0 0)" clip-path="url(#clip-path)">
        <path id="Tracé_765" data-name="Tracé 765" d="M42.054,15.987A15.387,15.387,0,1,1,26.667.6,15.388,15.388,0,0,1,42.054,15.987M24.112,27.2q.768-.473,2.205-1.181a3.854,3.854,0,0,0,2.275-3.85,4.586,4.586,0,0,1,.048-1.132q.271-.723,1.371-.328,4.177,1.5,2.427,5.7-.543,1.312-1.028,2.645c-.044.119-.007.155.112.108A14.108,14.108,0,0,0,40.557,18.27a.246.246,0,0,0-.191-.291.155.155,0,0,0-.022,0,3.879,3.879,0,0,0-3.619,1.519,2.8,2.8,0,0,1-2.052,1.284q-2.383-.014-2.212-2.081a3.668,3.668,0,0,1,.424-1.1,1.12,1.12,0,0,0-.051-1.285,3.356,3.356,0,0,0-1.281-.737,7.264,7.264,0,0,1-1.348-.663,2.083,2.083,0,0,1-.722-3.05,10.641,10.641,0,0,0,.954-1.985.29.29,0,0,0-.086-.305,3.732,3.732,0,0,0-1.635-.711,3.221,3.221,0,0,1-1.463-.816,4.281,4.281,0,0,1-.961-1.322A6.072,6.072,0,0,1,26.059,2.2a.226.226,0,0,0-.148-.285.205.205,0,0,0-.094-.009q-9.73,1.147-12.769,10.486a.246.246,0,0,0,.13.3,6.659,6.659,0,0,1,3.034,2.6q.012.018.525,1.143a4.19,4.19,0,0,0,.857,1.24.564.564,0,0,0,.316.16,2.031,2.031,0,0,0,1.713-.559q2.354-2.141,4.77-.934a3.848,3.848,0,0,1,1.944,1.973,3.686,3.686,0,0,1-.16,3.028,3.855,3.855,0,0,1-3.332,2.383q-.678.071-1.352.156a2.6,2.6,0,0,0-1.239.451,5.557,5.557,0,0,0-1.937,2.685.251.251,0,0,0,.085.29,13.394,13.394,0,0,0,3.714,1.981.259.259,0,0,0,.287-.1c.243-.332.483-.669.718-1.009a3.424,3.424,0,0,1,.991-.986m7.1-13.3a12.946,12.946,0,0,1,1.645.767,3.117,3.117,0,0,1,1.315,1.181,2.28,2.28,0,0,1-.183,2.313q-.744,1.273.443,1.3a1.212,1.212,0,0,0,1.029-.5,5.546,5.546,0,0,1,5.057-2.313.177.177,0,0,0,.193-.159v-.008a13.441,13.441,0,0,0-2.522-8.52A14.068,14.068,0,0,0,27.833,1.978a.368.368,0,0,0-.392.264Q26.134,6.618,29.732,7.8a5.08,5.08,0,0,1,1.456.63,1.811,1.811,0,0,1,.614,1.624,3.573,3.573,0,0,1-.428,1.236q-.31.589-.648,1.158-.61,1.031.485,1.449M16.02,17.867a14.641,14.641,0,0,1-.908-1.586A4.924,4.924,0,0,0,13,14.084a.193.193,0,0,0-.261.081.182.182,0,0,0-.022.072,14.2,14.2,0,0,0,4.234,11.909.158.158,0,0,0,.224-.005l.014-.017a13.145,13.145,0,0,0,.756-1.181,7.229,7.229,0,0,1,.871-1.3,3.188,3.188,0,0,1,2.361-1.094,5.629,5.629,0,0,0,2.584-.395,2.615,2.615,0,0,0,1.475-2.7,2.376,2.376,0,0,0-.986-1.7,2.544,2.544,0,0,0-2.112-.417,3.372,3.372,0,0,0-1.215.607q-.558.4-1.131.786a2.5,2.5,0,0,1-2.469.35,3.056,3.056,0,0,1-1.3-1.219m14.3,4.384a.167.167,0,0,0-.234.034.158.158,0,0,0-.03.067q-.838,4.171-4.2,5.366a3.312,3.312,0,0,0-1.984,1.806.151.151,0,0,0,.076.2.116.116,0,0,0,.032.01,12.619,12.619,0,0,0,5.292.018.4.4,0,0,0,.271-.2,27.688,27.688,0,0,0,2.052-4.4,2.682,2.682,0,0,0-1.277-2.9" transform="translate(0.311 0.016)" fill="#a1c84e"/>
        <path id="Tracé_766" data-name="Tracé 766" d="M42.054,15.987A15.387,15.387,0,1,1,26.667.6,15.388,15.388,0,0,1,42.054,15.987ZM24.112,27.2q.768-.473,2.205-1.181a3.854,3.854,0,0,0,2.275-3.85,4.586,4.586,0,0,1,.048-1.132q.271-.723,1.371-.328,4.177,1.5,2.427,5.7-.543,1.312-1.028,2.645c-.044.119-.007.155.112.108A14.108,14.108,0,0,0,40.557,18.27a.246.246,0,0,0-.191-.291.155.155,0,0,0-.022,0,3.879,3.879,0,0,0-3.619,1.519,2.8,2.8,0,0,1-2.052,1.284q-2.383-.014-2.212-2.081a3.668,3.668,0,0,1,.424-1.1,1.12,1.12,0,0,0-.051-1.285,3.356,3.356,0,0,0-1.281-.737,7.264,7.264,0,0,1-1.348-.663,2.083,2.083,0,0,1-.722-3.05,10.641,10.641,0,0,0,.954-1.985.29.29,0,0,0-.086-.305,3.732,3.732,0,0,0-1.635-.711,3.221,3.221,0,0,1-1.463-.816,4.281,4.281,0,0,1-.961-1.322A6.072,6.072,0,0,1,26.059,2.2a.226.226,0,0,0-.148-.285.205.205,0,0,0-.094-.009q-9.73,1.147-12.769,10.486a.246.246,0,0,0,.13.3,6.659,6.659,0,0,1,3.034,2.6q.012.018.525,1.143a4.19,4.19,0,0,0,.857,1.24.564.564,0,0,0,.316.16,2.031,2.031,0,0,0,1.713-.559q2.354-2.141,4.77-.934a3.848,3.848,0,0,1,1.944,1.973,3.686,3.686,0,0,1-.16,3.028,3.855,3.855,0,0,1-3.332,2.383q-.678.071-1.352.156a2.6,2.6,0,0,0-1.239.451,5.557,5.557,0,0,0-1.937,2.685.251.251,0,0,0,.085.29,13.394,13.394,0,0,0,3.714,1.981.259.259,0,0,0,.287-.1c.243-.332.483-.669.718-1.009A3.424,3.424,0,0,1,24.112,27.2Zm7.1-13.3a12.946,12.946,0,0,1,1.645.767,3.117,3.117,0,0,1,1.315,1.181,2.28,2.28,0,0,1-.183,2.313q-.744,1.273.443,1.3a1.212,1.212,0,0,0,1.029-.5,5.546,5.546,0,0,1,5.057-2.313.177.177,0,0,0,.193-.159v-.008a13.441,13.441,0,0,0-2.522-8.52A14.068,14.068,0,0,0,27.833,1.978a.368.368,0,0,0-.392.264Q26.134,6.618,29.732,7.8a5.08,5.08,0,0,1,1.456.63,1.811,1.811,0,0,1,.614,1.624,3.573,3.573,0,0,1-.428,1.236q-.31.589-.648,1.158Q30.115,13.477,31.21,13.894ZM16.02,17.867a14.641,14.641,0,0,1-.908-1.586A4.924,4.924,0,0,0,13,14.084a.193.193,0,0,0-.261.081.182.182,0,0,0-.022.072,14.2,14.2,0,0,0,4.234,11.909.158.158,0,0,0,.224-.005l.014-.017a13.145,13.145,0,0,0,.756-1.181,7.229,7.229,0,0,1,.871-1.3,3.188,3.188,0,0,1,2.361-1.094,5.629,5.629,0,0,0,2.584-.395,2.615,2.615,0,0,0,1.475-2.7,2.376,2.376,0,0,0-.986-1.7,2.544,2.544,0,0,0-2.112-.417,3.372,3.372,0,0,0-1.215.607q-.558.4-1.131.786a2.5,2.5,0,0,1-2.469.35A3.056,3.056,0,0,1,16.02,17.867Zm14.3,4.384a.167.167,0,0,0-.234.034.158.158,0,0,0-.03.067q-.838,4.171-4.2,5.366a3.312,3.312,0,0,0-1.984,1.806.151.151,0,0,0,.076.2.116.116,0,0,0,.032.01,12.619,12.619,0,0,0,5.292.018.4.4,0,0,0,.271-.2,27.688,27.688,0,0,0,2.052-4.4A2.682,2.682,0,0,0,30.324,22.251Z" transform="translate(0.311 0.016)" fill="none" stroke="#a1c84e" stroke-miterlimit="10" stroke-width="1.2"/>
        <path id="Tracé_767" data-name="Tracé 767" d="M23.283,7.276q.8,1.444-.957,3.243a1.007,1.007,0,0,0-.291.671,1.975,1.975,0,0,1-1.128,1.9,2.7,2.7,0,0,1-1.694.119,2.215,2.215,0,0,1-1.43-.763q-.547-.775.362-2.018a.8.8,0,0,0,.007-.939,1.889,1.889,0,0,1-.108-2.479,2.632,2.632,0,0,1,1.885-.928,5.281,5.281,0,0,1,1.888.149,2.238,2.238,0,0,1,1.467,1.047m-2.149.145a6.618,6.618,0,0,0-1.669.2q-.774.182-.305.823a2.127,2.127,0,0,1,.067,2.934q-.324.365.164.428,1.415.176,1.359-.677A1.948,1.948,0,0,1,21.5,9.338a2.959,2.959,0,0,0,.629-.569.764.764,0,0,0-.037-.938,1.194,1.194,0,0,0-.954-.41" transform="translate(0.484 0.166)" fill="#a1c84e"/>
        <path id="Tracé_768" data-name="Tracé 768" d="M23.283,7.276q.8,1.444-.957,3.243a1.007,1.007,0,0,0-.291.671,1.975,1.975,0,0,1-1.128,1.9,2.7,2.7,0,0,1-1.694.119,2.215,2.215,0,0,1-1.43-.763q-.547-.775.362-2.018a.8.8,0,0,0,.007-.939,1.889,1.889,0,0,1-.108-2.479,2.632,2.632,0,0,1,1.885-.928,5.281,5.281,0,0,1,1.888.149A2.238,2.238,0,0,1,23.283,7.276Zm-2.149.145a6.618,6.618,0,0,0-1.669.2q-.774.182-.305.823a2.127,2.127,0,0,1,.067,2.934q-.324.365.164.428,1.415.176,1.359-.677A1.948,1.948,0,0,1,21.5,9.338a2.959,2.959,0,0,0,.629-.569.764.764,0,0,0-.037-.938A1.194,1.194,0,0,0,21.134,7.421Z" transform="translate(0.484 0.166)" fill="none" stroke="#a1c84e" stroke-miterlimit="10" stroke-width="1.2"/>
        <path id="Tracé_769" data-name="Tracé 769" d="M7.895,26.755a11.375,11.375,0,0,1,4.171,1.937,35.08,35.08,0,0,1,8.308,8.263,8.871,8.871,0,0,1,1.252,3.159,50.179,50.179,0,0,1,.938,5.756.5.5,0,0,0,.547.451l.027,0a3.125,3.125,0,0,1,1.508.089.276.276,0,0,1,.179.257q.156,7.671.092,15.343c0,.012.011.208.034.588q.06,1.013-.986.946c-.319-.021-.493-.03-.525-.03H11.194a.629.629,0,0,1-.711-.712V47.031a.647.647,0,0,1,.707-.73l.946-.034a.156.156,0,0,0,.155-.157.137.137,0,0,0,0-.029,6.006,6.006,0,0,0-2.394-3.765q-2.272-1.683-4.513-3.4A7.428,7.428,0,0,1,2.748,35.1,49.973,49.973,0,0,1,.614,19.288a9.449,9.449,0,0,1,.656-3.322A3.163,3.163,0,0,1,2.327,14.48a1.508,1.508,0,0,1,2.108.387,3.991,3.991,0,0,1,.924,1.52A54.825,54.825,0,0,1,7.69,26.528a.267.267,0,0,0,.2.227m3.8,10.568q-.584,1-1.266.209-.529-.613-.559-.64a25.277,25.277,0,0,1-4.756-6.45A2.526,2.526,0,0,1,6.174,26.8a.245.245,0,0,0,.108-.234q-.331-2.593-.831-5.244a19.5,19.5,0,0,0-1.884-5.455q-.418-.8-.8.018A9.339,9.339,0,0,0,1.9,19.754a48.866,48.866,0,0,0,2.089,14.7,7.1,7.1,0,0,0,2.756,3.865q1.039.734,1.065.753,1.378,1.06,2.774,2.092a7.793,7.793,0,0,1,3.076,4.9.273.273,0,0,0,.268.219l7.143-.022a.17.17,0,0,0,.172-.167.064.064,0,0,0,0-.02,40.979,40.979,0,0,0-1.09-6.212A9.436,9.436,0,0,0,18,36.068a42.186,42.186,0,0,0-5.493-5.4,17.42,17.42,0,0,0-3.061-1.963,9.062,9.062,0,0,0-1.43-.607,2.519,2.519,0,0,0-1.612.153A.653.653,0,0,0,6.021,29a5.8,5.8,0,0,0,.912,2.049,61.17,61.17,0,0,0,4.729,5.976.252.252,0,0,1,.034.3M23.613,47.687a.1.1,0,0,0-.1-.1H11.883a.1.1,0,0,0-.1.1V62.106a.1.1,0,0,0,.1.1H23.517a.1.1,0,0,0,.1-.1Z" transform="translate(0.017 0.391)" fill="#464646"/>
        <path id="Tracé_770" data-name="Tracé 770" d="M7.895,26.755a11.375,11.375,0,0,1,4.171,1.937,35.08,35.08,0,0,1,8.308,8.263,8.871,8.871,0,0,1,1.252,3.159,50.179,50.179,0,0,1,.938,5.756.5.5,0,0,0,.547.451l.027,0a3.125,3.125,0,0,1,1.508.089.276.276,0,0,1,.179.257q.156,7.671.092,15.343c0,.012.011.208.034.588q.06,1.013-.986.946c-.319-.021-.493-.03-.525-.03H11.194a.629.629,0,0,1-.711-.712V47.031a.647.647,0,0,1,.707-.73l.946-.034a.156.156,0,0,0,.155-.157.137.137,0,0,0,0-.029,6.006,6.006,0,0,0-2.394-3.765q-2.272-1.683-4.513-3.4A7.428,7.428,0,0,1,2.748,35.1,49.973,49.973,0,0,1,.614,19.288a9.449,9.449,0,0,1,.656-3.322A3.163,3.163,0,0,1,2.327,14.48a1.508,1.508,0,0,1,2.108.387,3.991,3.991,0,0,1,.924,1.52A54.825,54.825,0,0,1,7.69,26.528.267.267,0,0,0,7.895,26.755Zm3.8,10.568q-.584,1-1.266.209-.529-.613-.559-.64a25.277,25.277,0,0,1-4.756-6.45A2.526,2.526,0,0,1,6.174,26.8a.245.245,0,0,0,.108-.234q-.331-2.593-.831-5.244a19.5,19.5,0,0,0-1.884-5.455q-.418-.8-.8.018A9.339,9.339,0,0,0,1.9,19.754a48.866,48.866,0,0,0,2.089,14.7,7.1,7.1,0,0,0,2.756,3.865q1.039.734,1.065.753,1.378,1.06,2.774,2.092a7.793,7.793,0,0,1,3.076,4.9.273.273,0,0,0,.268.219l7.143-.022a.17.17,0,0,0,.172-.167.064.064,0,0,0,0-.02,40.979,40.979,0,0,0-1.09-6.212A9.436,9.436,0,0,0,18,36.068a42.186,42.186,0,0,0-5.493-5.4,17.42,17.42,0,0,0-3.061-1.963,9.062,9.062,0,0,0-1.43-.607,2.519,2.519,0,0,0-1.612.153A.653.653,0,0,0,6.021,29a5.8,5.8,0,0,0,.912,2.049,61.17,61.17,0,0,0,4.729,5.976A.252.252,0,0,1,11.7,37.323ZM23.613,47.687a.1.1,0,0,0-.1-.1H11.883a.1.1,0,0,0-.1.1V62.106a.1.1,0,0,0,.1.1H23.517a.1.1,0,0,0,.1-.1Z" transform="translate(0.017 0.391)" fill="none" stroke="#464646" stroke-miterlimit="10" stroke-width="1.2"/>
        <path id="Tracé_771" data-name="Tracé 771" d="M41.024,46.233a2.017,2.017,0,0,1,1.483.335.355.355,0,0,1,.149.294l.022,16.184a.369.369,0,0,1-.361.373L28.958,63.5a.625.625,0,0,1-.714-.711l.067-15.879q0-.652.785-.667l1.278-.026c.1,0,.182-.1.2-.238A46.4,46.4,0,0,1,31.8,39.306a6.884,6.884,0,0,1,.995-2.19,31.867,31.867,0,0,1,3.172-3.94,34.84,34.84,0,0,1,3.687-3.444A20.71,20.71,0,0,1,44.458,26.9a.7.7,0,0,1,.358-.04.6.6,0,0,0,.748-.59A44.888,44.888,0,0,1,47.82,16.33a4.283,4.283,0,0,1,.779-1.317,1.946,1.946,0,0,1,1.251-.753,1.622,1.622,0,0,1,1.6.815,5.769,5.769,0,0,1,.912,2.845A46.964,46.964,0,0,1,50.52,34.576a9.525,9.525,0,0,1-1.289,2.812,10.829,10.829,0,0,1-2.19,2.085q-1.84,1.426-3.721,2.8a6.106,6.106,0,0,0-2.447,3.8.128.128,0,0,0,.1.151.133.133,0,0,0,.045,0m.92-8.394q-.926-.395-.219-1.165a46.6,46.6,0,0,0,4.327-5.34,9.654,9.654,0,0,0,1.094-2.177q.391-1.1-.837-1.118a5.559,5.559,0,0,0-3.057.849,31.047,31.047,0,0,0-8.964,8.338,8.013,8.013,0,0,0-1.214,2.533,35.17,35.17,0,0,0-1.154,6.315.172.172,0,0,0,.148.192h.02l7.127,0a.24.24,0,0,0,.227-.183,9.053,9.053,0,0,1,1.582-3.5,20.471,20.471,0,0,1,3.724-3.072A19.878,19.878,0,0,0,47.8,36.967a5.534,5.534,0,0,0,1.218-2.123,43.48,43.48,0,0,0,2.112-16.3,6.723,6.723,0,0,0-.7-2.636.458.458,0,0,0-.616-.2.475.475,0,0,0-.166.143,6.213,6.213,0,0,0-.864,1.8A51.735,51.735,0,0,0,46.907,26.5a.382.382,0,0,0,.187.378,2.215,2.215,0,0,1,1.3,2.36,5.347,5.347,0,0,1-.659,1.9,25.664,25.664,0,0,1-5.482,6.646.3.3,0,0,1-.313.052m-.569,9.917a.163.163,0,0,0-.163-.163H29.71a.163.163,0,0,0-.163.163V62.041a.163.163,0,0,0,.163.163h11.5a.163.163,0,0,0,.163-.163Z" transform="translate(0.778 0.392)" fill="#464646"/>
        <path id="Tracé_772" data-name="Tracé 772" d="M41.024,46.233a2.017,2.017,0,0,1,1.483.335.355.355,0,0,1,.149.294l.022,16.184a.369.369,0,0,1-.361.373L28.958,63.5a.625.625,0,0,1-.714-.711l.067-15.879q0-.652.785-.667l1.278-.026c.1,0,.182-.1.2-.238A46.4,46.4,0,0,1,31.8,39.306a6.884,6.884,0,0,1,.995-2.19,31.867,31.867,0,0,1,3.172-3.94,34.84,34.84,0,0,1,3.687-3.444A20.71,20.71,0,0,1,44.458,26.9a.7.7,0,0,1,.358-.04.6.6,0,0,0,.748-.59A44.888,44.888,0,0,1,47.82,16.33a4.283,4.283,0,0,1,.779-1.317,1.946,1.946,0,0,1,1.251-.753,1.622,1.622,0,0,1,1.6.815,5.769,5.769,0,0,1,.912,2.845A46.964,46.964,0,0,1,50.52,34.576a9.525,9.525,0,0,1-1.289,2.812,10.829,10.829,0,0,1-2.19,2.085q-1.84,1.426-3.721,2.8a6.106,6.106,0,0,0-2.447,3.8.128.128,0,0,0,.1.151A.133.133,0,0,0,41.024,46.233Zm.92-8.394q-.926-.395-.219-1.165a46.6,46.6,0,0,0,4.327-5.34,9.654,9.654,0,0,0,1.094-2.177q.391-1.1-.837-1.118a5.559,5.559,0,0,0-3.057.849,31.047,31.047,0,0,0-8.964,8.338,8.013,8.013,0,0,0-1.214,2.533,35.17,35.17,0,0,0-1.154,6.315.172.172,0,0,0,.148.192h.02l7.127,0a.24.24,0,0,0,.227-.183,9.053,9.053,0,0,1,1.582-3.5,20.471,20.471,0,0,1,3.724-3.072A19.878,19.878,0,0,0,47.8,36.967a5.534,5.534,0,0,0,1.218-2.123,43.48,43.48,0,0,0,2.112-16.3,6.723,6.723,0,0,0-.7-2.636.458.458,0,0,0-.616-.2.475.475,0,0,0-.166.143,6.213,6.213,0,0,0-.864,1.8A51.735,51.735,0,0,0,46.907,26.5a.382.382,0,0,0,.187.378,2.215,2.215,0,0,1,1.3,2.36,5.347,5.347,0,0,1-.659,1.9,25.664,25.664,0,0,1-5.482,6.646A.3.3,0,0,1,41.943,37.839Zm-.569,9.917a.163.163,0,0,0-.163-.163H29.71a.163.163,0,0,0-.163.163V62.041a.163.163,0,0,0,.163.163h11.5a.163.163,0,0,0,.163-.163Z" transform="translate(0.778 0.392)" fill="none" stroke="#464646" stroke-miterlimit="10" stroke-width="1.2"/>
      </g>
    </g>
  </svg>
  