
<svg xmlns="http://www.w3.org/2000/svg" xmlns:xlink="http://www.w3.org/1999/xlink" width="21.786" height="35.363" viewBox="0 0 21.786 35.363">
  <defs>
    <clipPath id="clip-path">
      <rect id="Rectangle_67" data-name="Rectangle 67" width="21.786" height="35.363" fill="none"/>
    </clipPath>
  </defs>
  <g id="classique" clip-path="url(#clip-path)">
    <g id="Groupe_114" data-name="Groupe 114" transform="translate(0 0)">
      <g id="Groupe_113" data-name="Groupe 113" clip-path="url(#clip-path)">
        <path id="Tracé_83" data-name="Tracé 83" d="M10.892,27.576a1.676,1.676,0,0,1-.726-.168c-2.178-1.052-4.3-2.156-6.3-3.282a10.391,10.391,0,0,1-3.1-2.77,4.762,4.762,0,0,1-.621-1.309A4.578,4.578,0,0,1,0,19.062c-.011-.878.014-6.8.062-14.343A1.671,1.671,0,0,1,1.205,3.143L10.363.086a1.666,1.666,0,0,1,1.057,0l9.158,3.057A1.672,1.672,0,0,1,21.719,4.72c.048,7.519.074,13.44.065,14.267a4.023,4.023,0,0,1-.152,1.067,4.544,4.544,0,0,1-.627,1.312,10.375,10.375,0,0,1-3.092,2.762c-2.559,1.439-4.836,2.58-6.3,3.282a1.669,1.669,0,0,1-.725.167M1.636,19.644a3.322,3.322,0,0,0,.406.842,8.866,8.866,0,0,0,2.585,2.3c1.971,1.108,4.06,2.2,6.208,3.236a.12.12,0,0,0,.113,0c1.441-.693,3.687-1.817,6.209-3.236a8.967,8.967,0,0,0,2.583-2.3,3.1,3.1,0,0,0,.408-.847,2.447,2.447,0,0,0,.1-.66v-.008c.007-.7-.012-6.04-.065-14.245a.134.134,0,0,0-.088-.126L10.933,1.546a.143.143,0,0,0-.082,0L1.693,4.6A.134.134,0,0,0,1.6,4.73c-.053,8.215-.072,13.551-.065,14.245a3.142,3.142,0,0,0,.1.669" transform="translate(0 0)" fill="#3e3e3e"/>
        <path id="Tracé_85" data-name="Tracé 85" d="M13.755,4.957v19.16c-.962.493-1.7.862-1.855.931-.323-.154-3.325-1.624-5.458-2.894a4.453,4.453,0,0,1-1.509-1.378,3.923,3.923,0,0,1-.57-1.386V6.666L11.9,4.4Z" transform="translate(-1.005 -1.014)" fill="#3e3e3e"/>
        <path id="Tracé_86" data-name="Tracé 86" d="M5.526,42.321a2.264,2.264,0,1,1-2.264-2.264,2.264,2.264,0,0,1,2.264,2.264" transform="translate(-0.23 -9.222)" fill="#3e3e3e"/>
        <path id="Tracé_87" data-name="Tracé 87" d="M13.308,42.321a2.264,2.264,0,1,1-2.264-2.264,2.264,2.264,0,0,1,2.264,2.264" transform="translate(-2.021 -9.222)" fill="#3e3e3e"/>
        <path id="Tracé_88" data-name="Tracé 88" d="M19.38,42.576a1.409,1.409,0,1,1-1.409-1.409,1.41,1.41,0,0,1,1.409,1.409" transform="translate(-3.813 -9.478)" fill="#3e3e3e"/>
        <path id="Tracé_89" data-name="Tracé 89" d="M25.331,42.576a1.409,1.409,0,1,1-1.409-1.409,1.41,1.41,0,0,1,1.409,1.409" transform="translate(-5.183 -9.478)" fill="#3e3e3e"/>
      </g>
    </g>
  </g>
</svg>
