
<svg xmlns="http://www.w3.org/2000/svg" xmlns:xlink="http://www.w3.org/1999/xlink" width="45.516" height="57.6" viewBox="0 0 45.516 57.6">
    <defs>
      <clipPath id="clip-path">
        <rect id="Rectangle_166" data-name="Rectangle 166" width="45.516" height="57.6" fill="none"/>
      </clipPath>
    </defs>
    <g id="defense" transform="translate(0 0)" opacity="0.6">
      <g id="Groupe_696" data-name="Groupe 696" transform="translate(0 0)" clip-path="url(#clip-path)">
        <path id="Tracé_734" data-name="Tracé 734" d="M45.381,9.846V9.813A3.536,3.536,0,0,0,43,6.549L24.7.455,23.866.18a3.463,3.463,0,0,0-2.2,0L2.512,6.565A3.442,3.442,0,0,0,.148,9.846C.036,25.6-.014,37.984,0,39.818A9.8,9.8,0,0,0,.309,41.86a10.213,10.213,0,0,0,1.3,2.749A22.049,22.049,0,0,0,8.09,50.381c1.4.8,2.751,1.529,4.021,2.2l1.4.755c3.314,1.754,6.032,3.088,7.719,3.893a3.365,3.365,0,0,0,1.543.354l-.017.017a3.5,3.5,0,0,0,1.512-.354c.145-.064.29-.131.434-.209,1.721-.838,4.261-2.091,7.3-3.7,1.707-.883,3.523-1.88,5.419-2.941a23.394,23.394,0,0,0,4.341-3.3,16.542,16.542,0,0,0,2.124-2.476,9.222,9.222,0,0,0,1.3-2.749,7.98,7.98,0,0,0,.323-2.219c.031-1.657-.033-14.2-.128-29.811M42.293,39.64a4.521,4.521,0,0,1-.209,1.384,6.254,6.254,0,0,1-.836,1.768,14.725,14.725,0,0,1-1.721,1.994,20.6,20.6,0,0,1-3.682,2.8c-1.866,1.061-3.651,2.027-5.324,2.913-2.267,1.189-4.261,2.186-5.82,2.958-.691.354-1.317.643-1.832.9a.252.252,0,0,1-.242-.017c-1.654-.8-4.341-2.122-7.605-3.841l-1.381-.741c-1.256-.677-2.59-1.384-3.957-2.172a18.651,18.651,0,0,1-5.419-4.807,7.1,7.1,0,0,1-.836-1.768,5.81,5.81,0,0,1-.209-1.384C3.2,38.192,3.25,27.05,3.381,9.846A.266.266,0,0,1,3.54,9.6L22.676,3.221a.26.26,0,0,1,.159,0l1.866.627L41.972,9.6a.282.282,0,0,1,.192.273c.095,15.581.145,28.09.128,29.764" transform="translate(0 -0.001)" fill="#333"/>
        <path id="Tracé_735" data-name="Tracé 735" d="M18.959,45.776a11.446,11.446,0,0,1-1.2-.063c-2-.208-3.365-.857-9.15-5.02l-.024-.018a18.805,18.805,0,0,1-4.534-4.407,8.892,8.892,0,0,1-1-2.276l-.011-.042a8.744,8.744,0,0,1-.236-1.692v-.052c-.01-1.3.022-10.067.095-20.849A3.808,3.808,0,0,1,5.371,7.747L17.709,3.311a3.535,3.535,0,0,1,2.381,0l.535.189L32.44,7.742A3.889,3.889,0,0,1,34.9,11.319v.048c.076,13.287.1,19.689.083,20.732a7.372,7.372,0,0,1-.253,1.891,8.015,8.015,0,0,1-1.019,2.317,12.862,12.862,0,0,1-1.541,1.941,16.908,16.908,0,0,1-1.355,1.258c-4.584,3.786-7.108,5.871-10.809,6.221C19.664,45.76,19.311,45.776,18.959,45.776ZM5.809,33.259a6.06,6.06,0,0,0,.676,1.524,15.956,15.956,0,0,0,3.774,3.586l.023.016c5.471,3.937,6.479,4.36,7.778,4.5a8.4,8.4,0,0,0,1.674.011c2.832-.268,4.848-1.933,9.265-5.581a14.179,14.179,0,0,0,1.12-1.041,9.847,9.847,0,0,0,1.195-1.5,5.162,5.162,0,0,0,.657-1.493l0-.014a4.522,4.522,0,0,0,.158-1.173v-.026c.024-1.27-.036-12.412-.083-20.683v-.013a1.024,1.024,0,0,0-.6-.949L19.137,5.994a.668.668,0,0,0-.461,0L6.331,10.428a.977.977,0,0,0-.579.939c-.072,10.707-.1,19.409-.1,20.791A5.926,5.926,0,0,0,5.809,33.259Z" transform="translate(3.856 4.263)" fill="#a1c84e"/>
      </g>
    </g>
  </svg>
  