
<svg xmlns="http://www.w3.org/2000/svg" xmlns:xlink="http://www.w3.org/1999/xlink" width="41.414" height="40" viewBox="0 0 41.414 40">
    <defs>
      <clipPath id="clip-path">
        <rect id="Rectangle_193" data-name="Rectangle 193" width="41.414" height="40" fill="none"/>
      </clipPath>
    </defs>
    <g id="dependances" transform="translate(0 0)">
      <g id="Groupe_733" data-name="Groupe 733" transform="translate(0 -0.001)" clip-path="url(#clip-path)">
        <path id="Tracé_206" data-name="Tracé 206" d="M4.137,21.275c-.466.208-.9.4-1.333.6-.554.245-1.106.495-1.665.726a1.218,1.218,0,0,1-.542.117.675.675,0,0,1-.591-.73c-.011-1.1-.008-2.2,0-3.3a.812.812,0,0,1,.562-.762c2.387-1.07,4.769-2.151,7.156-3.223q6.764-3.038,13.53-6.069,6.73-3.018,13.46-6.03Q37.5,1.359,40.278.117A1.133,1.133,0,0,1,40.817,0,.68.68,0,0,1,41.4.738c.013,1.111.011,2.224,0,3.335a.771.771,0,0,1-.51.715q-1.295.586-2.592,1.171c-.295.132-.59.263-.89.383a.223.223,0,0,0-.157.243q.01,5.185.012,10.37,0,10.906,0,21.812c0,.181-.005.363-.02.544a.665.665,0,0,1-.616.66,2.976,2.976,0,0,1-.423.027H5.159C5.1,40,5.051,40,5,40a.752.752,0,0,1-.848-.791c-.008-.087-.011-.175-.011-.263V21.275M35.9,7.031c-.24.111-.45.211-.662.306q-3.23,1.451-6.462,2.9L15.147,16.343q-4.713,2.113-9.429,4.22c-.157.069-.236.148-.208.33a2.7,2.7,0,0,1,.007.4q0,8.571,0,17.142c0,.153.043.192.195.192q3.932,0,7.863,0h.5V26.279a.653.653,0,0,1,.662-.752c.483-.033.97-.023,1.454-.023q4.661,0,9.32,0c.743,0,.975.235.975.959q0,5.973-.007,11.947c0,.153.024.227.207.227q4.356-.008,8.714,0c.494,0,.492,0,.492-.5q0-13.924,0-27.85V7.031M15.46,26.9c-.007.063-.012.089-.012.116q0,5.719,0,11.44c0,.149.056.176.191.176q4.477,0,8.954,0c.115,0,.229-.009.343,0,.141.007.181-.052.181-.192q-.006-5.669,0-11.338c0-.161-.047-.2-.205-.2q-4.609.008-9.217,0H15.46M40.041,1.729c-.332.149-.63.285-.927.419L26.594,7.759q-6.9,3.1-13.806,6.19Q7.16,16.467,1.533,18.98c-.067.029-.153.113-.155.175-.012.6-.007,1.2-.007,1.829.092-.035.155-.053.212-.079q1.225-.548,2.448-1.1l17.934-8.034Q30.829,7.8,39.7,3.83a.473.473,0,0,0,.351-.527c-.024-.51-.007-1.021-.007-1.574" transform="translate(0 0.001)" fill="#3e3e3e"/>
      </g>
    </g>
  </svg>
  