
<svg xmlns="http://www.w3.org/2000/svg" xmlns:xlink="http://www.w3.org/1999/xlink" width="21.785" height="34.506" viewBox="0 0 21.785 34.506">
  <defs>
    <clipPath id="clip-path">
      <rect id="Rectangle_64" data-name="Rectangle 64" width="21.785" height="34.506" fill="none"/>
    </clipPath>
  </defs>
  <g id="economique" clip-path="url(#clip-path)">
    <g id="Groupe_108" data-name="Groupe 108" transform="translate(0 0)">
      <g id="Groupe_107" data-name="Groupe 107" clip-path="url(#clip-path)">
        <path id="Tracé_76" data-name="Tracé 76" d="M10.895,27.573a1.667,1.667,0,0,1-.738-.172c-.8-.386-2.105-1.027-3.695-1.864l-.668-.362c-.6-.32-1.257-.67-1.926-1.052A10.485,10.485,0,0,1,.773,21.357,4.727,4.727,0,0,1,.15,20.04,4.617,4.617,0,0,1,0,19.067c-.012-.876.014-6.8.065-14.353A1.663,1.663,0,0,1,1.2,3.143L10.364.086a1.666,1.666,0,0,1,1.057,0l9.158,3.054A1.69,1.69,0,0,1,21.722,4.7v.01c.044,7.474.07,13.478.062,14.277a3.875,3.875,0,0,1-.153,1.06A4.481,4.481,0,0,1,21,21.367a8.034,8.034,0,0,1-1.015,1.184,11.323,11.323,0,0,1-2.077,1.576c-.908.511-1.777.985-2.592,1.412-1.585.834-2.889,1.476-3.7,1.867a1.633,1.633,0,0,1-.723.168M1.636,19.637a3.285,3.285,0,0,0,.406.848,9.021,9.021,0,0,0,2.587,2.3c.657.374,1.3.717,1.9,1.037l.657.356c1.563.824,2.847,1.455,3.648,1.84a.118.118,0,0,0,.109,0c.813-.39,2.1-1.023,3.665-1.847.8-.42,1.657-.887,2.551-1.391a9.9,9.9,0,0,0,1.76-1.337,6.539,6.539,0,0,0,.824-.961,3.019,3.019,0,0,0,.406-.847,2.409,2.409,0,0,0,.1-.657c.008-.8-.018-6.789-.062-14.252a.143.143,0,0,0-.094-.131L10.933,1.546a.137.137,0,0,0-.082,0L1.691,4.6a.126.126,0,0,0-.082.117c-.056,8.23-.076,13.567-.069,14.256a3.072,3.072,0,0,0,.1.662" transform="translate(0 0)" fill="#3e3e3e"/>
        <path id="Tracé_77" data-name="Tracé 77" d="M7.169,6.24V23c-.246-.139-.493-.285-.731-.423A4.453,4.453,0,0,1,4.929,21.2a3.923,3.923,0,0,1-.57-1.386V7.087Z" transform="translate(-1.004 -1.436)" fill="#3e3e3e"/>
        <path id="Tracé_79" data-name="Tracé 79" d="M17.911,42.573A1.409,1.409,0,1,1,16.5,41.164a1.41,1.41,0,0,1,1.409,1.409" transform="translate(-3.475 -9.477)" fill="#3e3e3e"/>
        <path id="Tracé_80" data-name="Tracé 80" d="M23.862,42.573a1.409,1.409,0,1,1-1.409-1.409,1.41,1.41,0,0,1,1.409,1.409" transform="translate(-4.845 -9.477)" fill="#3e3e3e"/>
        <path id="Tracé_81" data-name="Tracé 81" d="M6.411,42.573A1.409,1.409,0,1,1,5,41.164a1.41,1.41,0,0,1,1.409,1.409" transform="translate(-0.827 -9.477)" fill="#3e3e3e"/>
        <path id="Tracé_82" data-name="Tracé 82" d="M12.362,42.573a1.409,1.409,0,1,1-1.409-1.409,1.41,1.41,0,0,1,1.409,1.409" transform="translate(-2.197 -9.477)" fill="#3e3e3e"/>
      </g>
    </g>
  </g>
</svg>
