
<svg id="electronic" xmlns="http://www.w3.org/2000/svg" xmlns:xlink="http://www.w3.org/1999/xlink" width="51.912" height="60.712" viewBox="0 0 51.912 60.712">
    <defs>
      <clipPath id="clip-path">
        <rect id="Rectangle_214" data-name="Rectangle 214" width="51.912" height="60.712" fill="none"/>
      </clipPath>
    </defs>
    <g id="Groupe_767" data-name="Groupe 767" transform="translate(0 0)" clip-path="url(#clip-path)">
      <path id="Tracé_271" data-name="Tracé 271" d="M22.644,27.957a27.069,27.069,0,0,1-.342,3.989,5.87,5.87,0,0,1-6.357,4.509,6.014,6.014,0,0,1-5.454-5.86c-.048-1.774-.051-3.552,0-5.327a6.027,6.027,0,0,1,12.051.077c.023.868,0,1.737,0,2.605l.1.007m-8.638-.039c0,.907-.041,1.817.009,2.721A2.47,2.47,0,0,0,16.495,33a2.434,2.434,0,0,0,2.511-2.319c.063-1.811.061-3.628,0-5.44a2.457,2.457,0,0,0-2.472-2.369,2.5,2.5,0,0,0-2.526,2.444c-.041.866-.008,1.736,0,2.6" transform="translate(1.506 2.797)" fill="#7c7c7c"/>
      <path id="Tracé_272" data-name="Tracé 272" d="M15.33,50.029a6.028,6.028,0,0,1-1.2,2.895A6.174,6.174,0,0,1,8.906,55.2a5.987,5.987,0,0,1-5.5-5.921c-.032-1.776-.037-3.552,0-5.328a5.978,5.978,0,0,1,5.485-5.809,6.052,6.052,0,0,1,5.621,2.813,7,7,0,0,1,.777,2.106,13.761,13.761,0,0,1,.216,3.655c-.018.849-.062,1.976-.178,3.31m-3.383-3.286c0-.867.032-1.736-.008-2.6a2.462,2.462,0,0,0-2.461-2.5A2.374,2.374,0,0,0,6.9,44c-.085,1.769-.082,3.548,0,5.318A2.373,2.373,0,0,0,9.448,51.7a2.46,2.46,0,0,0,2.49-2.471c.043-.825.007-1.654.009-2.483" transform="translate(0.487 5.494)" fill="#7c7c7c"/>
      <path id="Tracé_273" data-name="Tracé 273" d="M35.159,4.278A6.444,6.444,0,0,1,41.591.039a5.941,5.941,0,0,1,5.231,5.553c.094,1.968.1,3.948,0,5.916a5.909,5.909,0,0,1-6.052,5.581c-3.152-.029-5.491-3.242-5.9-5.634A21.881,21.881,0,0,1,34.866,8.5a20.548,20.548,0,0,1,.293-4.219M43.406,8.6c0-.867.046-1.738-.01-2.6a2.538,2.538,0,0,0-5.075.018c-.065,1.692-.065,3.391,0,5.084a2.434,2.434,0,0,0,2.484,2.476A2.467,2.467,0,0,0,43.4,11.086c.054-.824.01-1.654.009-2.483" transform="translate(5.018 0)" fill="#7c7c7c"/>
      <path id="Tracé_274" data-name="Tracé 274" d="M46.846,28.016c0,.946.048,1.9-.01,2.84a5.987,5.987,0,0,1-11.959-.088c-.078-1.891-.079-3.79,0-5.68a5.989,5.989,0,0,1,11.959-.03c.057.983.009,1.972.008,2.959m-3.431.01c0-.789.021-1.579,0-2.368a2.559,2.559,0,1,0-5.1-.053c-.037,1.578-.042,3.158,0,4.735a2.548,2.548,0,1,0,5.094.054c.041-.788.008-1.579.01-2.368" transform="translate(5.017 2.798)" fill="#7c7c7c"/>
      <path id="Tracé_275" data-name="Tracé 275" d="M24.2,8.533c0,.712-.01,1.422,0,2.134.029,1.842.706,2.629,2.55,2.927.9.146,1.589.511,1.73,1.494a1.538,1.538,0,0,1-.985,1.819,3.453,3.453,0,0,1-1.5.142,5.816,5.816,0,0,1-5.145-5.1,44.109,44.109,0,0,1,0-6.746A5.873,5.873,0,0,1,26.9.009a6.024,6.024,0,0,1,5.825,5.357c.112,1.374-.38,2.169-1.436,2.325S29.549,7.235,29.3,5.875a2.486,2.486,0,0,0-2.746-2.341A2.523,2.523,0,0,0,24.2,6.281c-.022.749,0,1.5,0,2.252" transform="translate(2.985 0.001)" fill="#7c7c7c"/>
      <path id="Tracé_276" data-name="Tracé 276" d="M28.647,25.391c-.625.6-1.023,1.016-1.462,1.387a1.645,1.645,0,0,1-2.43-.057,1.616,1.616,0,0,1-.022-2.349c1.432-1.519,2.885-3.028,4.448-4.407a2.105,2.105,0,0,1,1.9-.333,2.447,2.447,0,0,1,1.031,1.774c.12,2.319.049,4.648.049,6.973,0,1.932.007,3.864,0,5.795-.007,1.475-.678,2.319-1.8,2.292-1.075-.027-1.71-.842-1.715-2.25-.008-2.836,0-5.672,0-8.824" transform="translate(3.493 2.813)" fill="#a1c84e"/>
      <path id="Tracé_277" data-name="Tracé 277" d="M4.415,25.391c-.656.626-1.058,1.055-1.509,1.428a1.587,1.587,0,0,1-2.339-.068A1.57,1.57,0,0,1,.484,24.41c1.458-1.555,2.951-3.086,4.54-4.5a1.965,1.965,0,0,1,1.808-.289,2.54,2.54,0,0,1,1.05,1.772c.127,2.166.049,4.343.05,6.516,0,2.133.01,4.266,0,6.4-.009,1.374-.718,2.2-1.809,2.162-1.042-.037-1.693-.833-1.7-2.154-.014-2.876,0-5.751,0-8.923" transform="translate(0 2.81)" fill="#a1c84e"/>
      <path id="Tracé_278" data-name="Tracé 278" d="M14.692,5.969c-.645.616-1.042,1.027-1.476,1.4a1.7,1.7,0,0,1-2.439-.033,1.579,1.579,0,0,1-.039-2.342C12.206,3.448,13.694,1.915,15.286.5a2.025,2.025,0,0,1,1.8-.26,2.07,2.07,0,0,1,1,1.538c.079,4.5.061,9.005.037,13.508a1.709,1.709,0,1,1-3.413-.039c-.035-2.567-.015-5.135-.017-7.7V5.969" transform="translate(1.475 0.019)" fill="#a1c84e"/>
      <path id="Tracé_279" data-name="Tracé 279" d="M21.627,44.218A10.274,10.274,0,0,1,20.572,45.5a1.678,1.678,0,0,1-2.439-.058,1.631,1.631,0,0,1,0-2.358c1.439-1.518,2.9-3.025,4.46-4.416a2.027,2.027,0,0,1,1.8-.346,2.226,2.226,0,0,1,1.1,1.6c.106,3.078.074,6.162.038,9.243a1.7,1.7,0,0,1-1.7,1.764,1.727,1.727,0,0,1-1.774-1.82c-.049-1.563-.013-3.128-.013-4.692l-.408-.2" transform="translate(2.54 5.509)" fill="#a1c84e"/>
    </g>
  </svg>
  