
<svg xmlns="http://www.w3.org/2000/svg" xmlns:xlink="http://www.w3.org/1999/xlink" width="42.968" height="47.77" viewBox="0 0 42.968 47.77">
    <defs>
      <clipPath id="clip-path">
        <rect id="Rectangle_232" data-name="Rectangle 232" width="42.968" height="47.77" transform="translate(-1 -1)" fill="none"/>
      </clipPath>
      <clipPath id="clip-path-2">
        <rect id="Rectangle_231" data-name="Rectangle 231" width="40.967" height="45.769" fill="none" stroke="#707070" stroke-width="2"/>
      </clipPath>
      <clipPath id="clip-path-3">
        <rect id="Rectangle_228" data-name="Rectangle 228" width="21.642" height="36.555" fill="none" stroke="#707070" stroke-width="2"/>
      </clipPath>
      <clipPath id="clip-path-4">
        <rect id="Rectangle_229" data-name="Rectangle 229" width="21.642" height="36.369" fill="none" stroke="#707070" stroke-width="2"/>
      </clipPath>
      <clipPath id="clip-path-5">
        <rect id="Rectangle_230" data-name="Rectangle 230" width="24.352" height="45.77" fill="none" stroke="#707070" stroke-width="2"/>
      </clipPath>
    </defs>
    <g id="electric" transform="translate(1 1)">
      <g id="Groupe_807" data-name="Groupe 807" clip-path="url(#clip-path)">
        <g id="Groupe_806" data-name="Groupe 806" transform="translate(0 0.001)">
          <g id="Groupe_805" data-name="Groupe 805" clip-path="url(#clip-path-2)">
            <g id="Groupe_798" data-name="Groupe 798" transform="translate(19.327 6.812)" opacity="0.65">
              <g id="Groupe_797" data-name="Groupe 797">
                <g id="Groupe_796" data-name="Groupe 796" clip-path="url(#clip-path-3)">
                  <path id="Tracé_303" data-name="Tracé 303" d="M24.722,4.836a19.327,19.327,0,0,1-12.294,34.24" transform="translate(-11.271 -3.679)" fill="none" stroke="#3e3e3e" stroke-linecap="round" stroke-miterlimit="10" stroke-width="2"/>
                </g>
              </g>
            </g>
            <g id="Groupe_801" data-name="Groupe 801" transform="translate(0 2.399)" opacity="0.65">
              <g id="Groupe_800" data-name="Groupe 800">
                <g id="Groupe_799" data-name="Groupe 799" clip-path="url(#clip-path-4)">
                  <path id="Tracé_304" data-name="Tracé 304" d="M7.514,36.213A19.327,19.327,0,0,1,20.029,2.158" transform="translate(0.455 -1.001)" fill="none" stroke="#3e3e3e" stroke-linecap="round" stroke-miterlimit="10" stroke-width="2"/>
                </g>
              </g>
            </g>
            <g id="Groupe_804" data-name="Groupe 804" transform="translate(8.311 -0.001)" opacity="0.65">
              <g id="Groupe_803" data-name="Groupe 803">
                <g id="Groupe_802" data-name="Groupe 802" clip-path="url(#clip-path-5)">
                  <path id="Tracé_305" data-name="Tracé 305" d="M6.934,44.1,13.55,24.5a.238.238,0,0,0-.109-.283L5.754,19.849a.238.238,0,0,1-.043-.384L26.348.654a.239.239,0,0,1,.387.252L20.121,20.492a.239.239,0,0,0,.109.283l7.689,4.363a.239.239,0,0,1,.043.384L7.321,44.349A.239.239,0,0,1,6.934,44.1Z" transform="translate(-4.66 0.383)" fill="none" stroke="#f97316" stroke-miterlimit="10" stroke-width="2"/>
                </g>
              </g>
            </g>
          </g>
        </g>
      </g>
    </g>
  </svg>
  