
<svg xmlns="http://www.w3.org/2000/svg" xmlns:xlink="http://www.w3.org/1999/xlink" width="39.985" height="40" viewBox="0 0 39.985 40">
    <defs>
      <clipPath id="clip-path">
        <rect id="Rectangle_192" data-name="Rectangle 192" width="39.985" height="40" fill="#3e3e3e"/>
      </clipPath>
    </defs>
    <g id="garage" transform="translate(0 0)">
      <g id="Groupe_731" data-name="Groupe 731" transform="translate(0 0)" clip-path="url(#clip-path)">
        <path id="Tracé_201" data-name="Tracé 201" d="M30.749,22.519c-.424-.6-.835-1.232-1.2-1.875-.767-1.341-1.506-2.7-2.259-4.066a5.7,5.7,0,0,0-5.3-3.176c-2.437-.055-4.969-.055-7.488,0a5.7,5.7,0,0,0-5.243,3.039L7.45,19.685l-1.122,2.04a3.7,3.7,0,0,1-.37.534,4.978,4.978,0,0,0-1.2,3.354v.849c.014,2.464.014,4.942-.014,7.406,0,.753.233,1.027.643,1.2h4.654a1,1,0,0,0,.63-1.15v-.329l.014-.808.808-.137h14.4l-.082.9c-.1,1,.151,1.328.616,1.519h4.668a.87.87,0,0,0,.63-.89V33c0-2.546.014-5.092,0-7.638a4.895,4.895,0,0,0-.972-2.847M9.627,19.028c.151-.246.3-.506.438-.767a16.435,16.435,0,0,1,1.081-1.725,3.809,3.809,0,0,1,3.176-1.519c2.505-.027,5.2-.055,7.857,0a4.069,4.069,0,0,1,3.641,2.218c.205.383.411.767.63,1.164L27.5,20.274H8.888ZM30.105,31.02h-.821c-.479,0-.945,0-1.424-.014-1.081-.014-2.122-.014-3.148.041h-.287a2.606,2.606,0,0,1-2.56-1.533,3.163,3.163,0,0,0-.356-.506l-.219-.287a.9.9,0,0,0-.767-.383H16.047a.914.914,0,0,0-.835.438l-.219.329c-.315.452-.616.9-.945,1.355a1.239,1.239,0,0,1-.972.548c-1.574.014-3.148.014-4.764.014H6.355L6.369,28.5c.014-.9.014-1.807-.014-2.71a3.682,3.682,0,0,1,3.217-3.805,5.986,5.986,0,0,1,.986-.082H25.917a4.025,4.025,0,0,1,3.7,1.848,3.29,3.29,0,0,1,.479,1.547c.027,1.177.027,2.354.014,3.545Z" transform="translate(1.748 4.928)" fill="#3e3e3e"/>
        <path id="Tracé_202" data-name="Tracé 202" d="M39.958,15.128a.8.8,0,0,1-.767.958.712.712,0,0,1-.52-.178.987.987,0,0,1-.3-.726,4.17,4.17,0,0,0-1.985-3.395L29.321,7.065l-6.872-4.6a4.066,4.066,0,0,0-4.928,0L13.169,5.381C9.993,7.5,6.8,9.638,3.614,11.76A4.313,4.313,0,0,0,1.6,15.552v9.815q0,6.714.014,13.429c0,.753-.219,1.027-.63,1.2H.616A1.075,1.075,0,0,1,0,39.37V14.758c.041-.164.082-.329.123-.506a8.148,8.148,0,0,1,.342-1.164,5.415,5.415,0,0,1,2.177-2.6l4.3-2.875Q11.786,4.348,16.673,1.1a5.544,5.544,0,0,1,6.639.014q5.4,3.573,10.773,7.2l3.231,2.163a5.656,5.656,0,0,1,2.642,4.654" transform="translate(0 0)" fill="#3e3e3e"/>
        <path id="Tracé_203" data-name="Tracé 203" d="M29.649,32.7c0,.753-.233,1.027-.643,1.2h-.342c-.424-.178-.643-.438-.643-1.2q.021-5.441.014-10.91V17.521c0-.671.274-.862.52-.945a.775.775,0,0,1,.684.055.853.853,0,0,1,.4.63v4.271q0,5.585.014,11.17" transform="translate(10.336 6.094)" fill="#3e3e3e"/>
        <path id="Tracé_204" data-name="Tracé 204" d="M21.944,23.4a1.622,1.622,0,1,1-3.244.027,1.622,1.622,0,0,1,3.244-.027" transform="translate(6.898 8.045)" fill="#3e3e3e"/>
        <path id="Tracé_205" data-name="Tracé 205" d="M11.314,23.413a1.622,1.622,0,1,1-1.6-1.6,1.613,1.613,0,0,1,1.6,1.6" transform="translate(2.977 8.045)" fill="#3e3e3e"/>
      </g>
    </g>
  </svg>
  