<svg xmlns="http://www.w3.org/2000/svg" width="262.033" height="22.998" viewBox="0 0 262.033 22.998"><script xmlns="" id="nimlmejbmnecnaghgmbahmbaddhjbecg"/><script xmlns=""/><script xmlns=""/><script xmlns=""/><g transform="translate(-5.66 -0.455)"><g transform="translate(-13 -1.046)"><path d="M9.134,8.193v2.461h5.882a5.217,5.217,0,0,1-1.341,3.1,6.023,6.023,0,0,1-4.542,1.8A6.455,6.455,0,0,1,2.681,9.013,6.455,6.455,0,0,1,9.134,2.472a6.248,6.248,0,0,1,4.431,1.761L15.3,2.5A8.5,8.5,0,0,0,9.134,0,9.13,9.13,0,0,0,0,9a9.129,9.129,0,0,0,9.134,9,8.246,8.246,0,0,0,6.282-2.522,8.143,8.143,0,0,0,2.131-5.751,7.835,7.835,0,0,0-.132-1.54Z" transform="translate(18.66 1.501)" fill="#161a34"/><path d="M14.224,2.725A5.729,5.729,0,0,0,8.392,8.537a5.746,5.746,0,0,0,5.832,5.812,5.74,5.74,0,0,0,5.832-5.812,5.729,5.729,0,0,0-5.832-5.812m0,9.334a3.361,3.361,0,0,1-3.281-3.522,3.289,3.289,0,1,1,6.562,0,3.361,3.361,0,0,1-3.281,3.522" transform="translate(29.335 4.968)" fill="#161a34"/><path d="M28.347,4.027h-.091a4.023,4.023,0,0,0-3.061-1.3,5.651,5.651,0,0,0-5.433,5.812A5.664,5.664,0,0,0,25.2,14.349a3.969,3.969,0,0,0,3.061-1.32h.091v.811c0,2.22-1.191,3.41-3.1,3.41a3.223,3.223,0,0,1-2.931-2.07l-2.22.92a5.537,5.537,0,0,0,5.151,3.431c2.992,0,5.521-1.761,5.521-6.053V3.025h-2.42Zm-2.931,8.032a3.254,3.254,0,0,1-3.1-3.522,3.236,3.236,0,0,1,3.1-3.519,3.272,3.272,0,0,1,3.1,3.54,3.237,3.237,0,0,1-3.1,3.5" transform="translate(43.8 4.968)" fill="#161a34"/><path d="M19.947,2.725a5.729,5.729,0,0,0-5.832,5.812,5.832,5.832,0,0,0,11.665,0,5.729,5.729,0,0,0-5.832-5.812m0,9.334a3.361,3.361,0,0,1-3.281-3.522,3.289,3.289,0,1,1,6.562,0,3.361,3.361,0,0,1-3.281,3.522" transform="translate(36.615 4.968)" fill="#161a34"/><rect width="2.511" height="17.575" transform="translate(76.571 1.742)" fill="#161a34"/><path d="M33.23,12.059A2.958,2.958,0,0,1,30.41,10.3l7.773-3.21-.261-.661a5.4,5.4,0,0,0-4.971-3.7,5.524,5.524,0,0,0-5.483,5.812,5.682,5.682,0,0,0,5.762,5.812,5.8,5.8,0,0,0,4.842-2.57l-1.981-1.322a3.323,3.323,0,0,1-2.861,1.6m-.179-7.153a2.3,2.3,0,0,1,2.2,1.281L30,8.358a3.159,3.159,0,0,1,3.051-3.451" transform="translate(53.601 4.968)" fill="#161a34"/><path d="M36.964,3.8V8.227h2.6a2.377,2.377,0,0,0,1.67-.632A2.123,2.123,0,0,0,41.921,6a2.089,2.089,0,0,0-.652-1.529,2.106,2.106,0,0,0-1.6-.668Zm0,11.038H35.346V2.251h4.29a3.877,3.877,0,0,1,2.776,1.088A3.468,3.468,0,0,1,43.573,6a3.505,3.505,0,0,1-.861,2.32A3.775,3.775,0,0,1,40.567,9.6l-.036.052,3.533,5.114v.07H42.149l-3.392-5.1H36.964Z" transform="translate(63.623 4.365)" fill="#161a34"/><path d="M43.761,13.053a4.121,4.121,0,0,1-3.129-1.3A4.6,4.6,0,0,1,39.4,8.463a4.639,4.639,0,0,1,1.2-3.27,3.942,3.942,0,0,1,3.058-1.318A3.875,3.875,0,0,1,46.7,5.126a4.891,4.891,0,0,1,1.145,3.463l-.018.175H41.057A2.794,2.794,0,0,0,41.9,10.8a2.726,2.726,0,0,0,4.362-.773l1.441.7a4.293,4.293,0,0,1-1.62,1.706,4.409,4.409,0,0,1-2.32.616M41.18,7.427h4.94a2.112,2.112,0,0,0-.738-1.477,2.513,2.513,0,0,0-1.761-.6,2.383,2.383,0,0,0-1.581.563,2.7,2.7,0,0,0-.859,1.511" transform="translate(68.784 6.432)" fill="#161a34"/><path d="M48.388,12.613H46.77L43.289,4h1.759l2.531,6.68h.036L50.18,4H51.9Z" transform="translate(73.727 6.589)" fill="#161a34"/><path d="M49.746,3.331a1.143,1.143,0,1,1-2.286,0,1.143,1.143,0,0,1,2.286,0m-.334,11.585H47.794V6.3h1.618Z" transform="translate(79.033 4.287)" fill="#161a34"/><path d="M53.349,13.053a4.118,4.118,0,0,1-3.129-1.3,4.6,4.6,0,0,1-1.229-3.288,4.648,4.648,0,0,1,1.2-3.27,3.946,3.946,0,0,1,3.058-1.318,3.883,3.883,0,0,1,3.04,1.25,4.9,4.9,0,0,1,1.143,3.463l-.018.175H50.643a2.8,2.8,0,0,0,.843,2.038,2.724,2.724,0,0,0,4.36-.773l1.44.7a4.272,4.272,0,0,1-1.618,1.706,4.409,4.409,0,0,1-2.32.616M50.766,7.427h4.94a2.1,2.1,0,0,0-.738-1.477,2.5,2.5,0,0,0-1.759-.6,2.378,2.378,0,0,0-1.581.563,2.7,2.7,0,0,0-.861,1.511" transform="translate(80.981 6.432)" fill="#161a34"/><path d="M65.99,4l-2.777,8.613H61.559L59.416,6l-2.127,6.61H55.654L52.877,4h1.686l1.918,6.5H56.5L58.623,4h1.67l2.129,6.5h.016l1.9-6.5Z" transform="translate(85.924 6.589)" fill="#161a34"/><path d="M66.019,10.379a2.336,2.336,0,0,1-.984,1.9,3.9,3.9,0,0,1-2.479.773,3.973,3.973,0,0,1-2.286-.668,3.779,3.779,0,0,1-1.406-1.793l1.443-.616a2.769,2.769,0,0,0,.913,1.213,2.464,2.464,0,0,0,2.62.089.95.95,0,0,0,.527-.793q0-.825-1.266-1.211L61.625,8.9q-2.515-.634-2.513-2.424A2.224,2.224,0,0,1,60.059,4.6a4.379,4.379,0,0,1,4.519-.177,2.948,2.948,0,0,1,1.3,1.461l-1.441.6a1.766,1.766,0,0,0-.809-.845A2.406,2.406,0,0,0,62.4,5.317a2.126,2.126,0,0,0-1.143.316.916.916,0,0,0-.491.775q0,.736,1.388,1.054l1.3.334q2.566.631,2.565,2.583" transform="translate(93.54 6.432)" fill="#161a34"/><path d="M75.987,1.87a.928.928,0,0,1,1.66,0l2.219,4.468a.927.927,0,0,0,.7.5l4.96.715a.92.92,0,0,1,.515,1.571l-3.592,3.477a.921.921,0,0,0-.267.815l.848,4.912a.923.923,0,0,1-1.343.968l-4.438-2.319a.929.929,0,0,0-.861,0L71.949,19.3a.923.923,0,0,1-1.343-.968l.846-4.912a.915.915,0,0,0-.266-.815L67.6,9.128a.92.92,0,0,1,.512-1.571l4.963-.715a.927.927,0,0,0,.7-.5Z" transform="translate(105.158 2.12)" fill="#e9b857"/><path d="M84.692,1.87a.928.928,0,0,1,1.66,0l2.219,4.468a.927.927,0,0,0,.7.5l4.96.715a.92.92,0,0,1,.515,1.571l-3.592,3.477a.913.913,0,0,0-.264.815l.846,4.912a.923.923,0,0,1-1.343.968l-4.438-2.319a.929.929,0,0,0-.861,0L80.654,19.3a.923.923,0,0,1-1.343-.968l.846-4.912a.914.914,0,0,0-.266-.815L76.3,9.128a.92.92,0,0,1,.512-1.571l4.963-.715a.927.927,0,0,0,.7-.5Z" transform="translate(118.757 2.12)" fill="#e9b857"/><path d="M93.4,1.87a.928.928,0,0,1,1.66,0l2.219,4.468a.927.927,0,0,0,.7.5l4.96.715a.92.92,0,0,1,.515,1.571l-3.592,3.477a.913.913,0,0,0-.264.815l.846,4.912A.923.923,0,0,1,99.1,19.3l-4.438-2.319a.929.929,0,0,0-.861,0L89.359,19.3a.923.923,0,0,1-1.343-.968l.845-4.912a.914.914,0,0,0-.266-.815l-3.59-3.477a.92.92,0,0,1,.512-1.571l4.963-.715a.927.927,0,0,0,.7-.5Z" transform="translate(132.356 2.12)" fill="#e9b857"/><path d="M102.1,1.87a.928.928,0,0,1,1.66,0l2.219,4.468a.927.927,0,0,0,.7.5l4.96.715a.92.92,0,0,1,.515,1.571l-3.592,3.477a.913.913,0,0,0-.264.815l.846,4.912a.923.923,0,0,1-1.343.968l-4.438-2.319a.929.929,0,0,0-.861,0L98.065,19.3a.923.923,0,0,1-1.343-.968l.846-4.912a.915.915,0,0,0-.266-.815l-3.59-3.477a.92.92,0,0,1,.512-1.571l4.963-.715a.927.927,0,0,0,.7-.5Z" transform="translate(145.956 2.12)" fill="#e9b857"/><path d="M106.423,3.582V15.939a.928.928,0,0,1-.986-1.074l.833-4.93a.89.89,0,0,0-.261-.812l-3.595-3.482a.91.91,0,0,1,.525-1.555Z" transform="translate(159.552 5.596)" fill="#e9b857"/><path d="M114.655,12.6a.948.948,0,0,0-.264.81l.856,4.93a.935.935,0,0,1-1.358.966l-4.427-2.324a1.028,1.028,0,0,0-.876,0l-4.425,2.324a1.564,1.564,0,0,1-.351.108V7.06l1.468-.22a.885.885,0,0,0,.7-.5l2.211-4.468a.935.935,0,0,1,1.665,0l2.214,4.468a.885.885,0,0,0,.7.5l4.973.723a.911.911,0,0,1,.5,1.555Z" transform="translate(162.167 2.121)" fill="#d9d9d9"/></g></g><script xmlns=""/></svg>