
<svg xmlns="http://www.w3.org/2000/svg" xmlns:xlink="http://www.w3.org/1999/xlink" width="14" height="32.139" viewBox="0 0 14 32.139">
  <defs>
    <clipPath id="clip-path">
      <rect id="Rectangle_69" data-name="Rectangle 69" width="14" height="32.139" fill="none"/>
    </clipPath>
  </defs>
  <g id="homme" transform="translate(0 0)">
    <g id="Groupe_117" data-name="Groupe 117" transform="translate(0 0)" clip-path="url(#clip-path)">
      <path id="Tracé_96" data-name="Tracé 96" d="M6.313,9.184a4.592,4.592,0,1,1,4.593-4.593A4.6,4.6,0,0,1,6.313,9.184m0-7.325A2.733,2.733,0,1,0,9.045,4.591,2.736,2.736,0,0,0,6.313,1.859" transform="translate(0.696 0)" fill="#3e3e3e"/>
      <path id="Tracé_97" data-name="Tracé 97" d="M11.2,29.174a.93.93,0,0,1-.93-.93v-7.7a2.27,2.27,0,0,1,.625-1.572l1.241-1.329V10.3a1.123,1.123,0,0,0-1.118-1.121H2.293a.442.442,0,0,0-.434.438v7.941L3.133,18.73A2.284,2.284,0,0,1,3.9,20.435v7.809a.929.929,0,1,1-1.859,0V20.435a.425.425,0,0,0-.145-.319L1.881,20.1.54,18.873A1.579,1.579,0,0,1,0,17.666V9.616A2.307,2.307,0,0,1,2.289,7.323h8.736A2.986,2.986,0,0,1,14,10.3v7.432a1.582,1.582,0,0,1-.441,1.11l-1.308,1.4a.419.419,0,0,0-.115.292v7.706a.93.93,0,0,1-.93.93" transform="translate(0 2.966)" fill="#3e3e3e"/>
    </g>
  </g>
</svg>
