
<svg xmlns="http://www.w3.org/2000/svg" xmlns:xlink="http://www.w3.org/1999/xlink" width="44.02" height="63.542" viewBox="0 0 44.02 63.542">
    <defs>
      <clipPath id="clip-path">
        <rect id="Rectangle_292" data-name="Rectangle 292" width="44.02" height="63.542" transform="translate(-2 -2)" fill="none" stroke="#707070" stroke-width="3"/>
      </clipPath>
    </defs>
    <g id="Incendie" transform="translate(2 2)" opacity="0.65">
      <g id="Groupe_723" data-name="Groupe 723" transform="translate(0 0)" clip-path="url(#clip-path)">
        <path id="Tracé_803" data-name="Tracé 803" d="M25.424.862C23.676,2.158,11.091,11.78,12.126,25a20.633,20.633,0,0,0,1.636,6.546c-2.175-.5-5.293-1.586-6.956-4.3-2.14-3.487-.63-7.633-1.227-7.774C4.807,19.3,1.032,25.934.874,34.209.817,37.219.582,49.5,10.08,55.691c4.933,3.214,11.95,4.366,17.8,1.841a18.22,18.22,0,0,0,6.342-4.738c3.881-4.287,4.881-9.03,5.524-12.275A35.945,35.945,0,0,0,38.313,21.9L31.766,24.97Z" transform="translate(-0.112 -0.113)" fill="none" stroke="#3e3e3e" stroke-linecap="round" stroke-linejoin="round" stroke-width="3"/>
        <path id="Tracé_804" data-name="Tracé 804" d="M20.929,31.974c.749.569,6.144,4.792,5.7,10.6a9.227,9.227,0,0,1-.7,2.873,4.577,4.577,0,0,0,2.981-1.885c.917-1.53.27-3.351.526-3.413.331-.08,1.949,2.833,2.017,6.465.024,1.321.125,6.712-3.947,9.428-.273.182-3.91,2.523-7.629.808-3.539-1.632-4.762-5.835-4.56-8.71.167-2.38,1.269-3.263,2.807-6.554A33.661,33.661,0,0,0,20.929,31.974Z" transform="translate(-1.996 -4.173)" fill="none" stroke="#a1c84e" stroke-linecap="round" stroke-linejoin="round" stroke-width="3"/>
      </g>
    </g>
  </svg>
  