
<svg id="info" xmlns="http://www.w3.org/2000/svg" xmlns:xlink="http://www.w3.org/1999/xlink" width="50" height="50" viewBox="0 0 50 50">
    <defs>
      <clipPath id="clip-path">
        <rect id="Rectangle_145" data-name="Rectangle 145" width="50" height="50" fill="none"/>
      </clipPath>
    </defs>
    <g id="Groupe_358" data-name="Groupe 358" clip-path="url(#clip-path)">
      <g id="Groupe_357" data-name="Groupe 357" transform="translate(0 0)">
        <g id="Groupe_356" data-name="Groupe 356" clip-path="url(#clip-path)">
          <g id="Groupe_355" data-name="Groupe 355" opacity="0.15">
            <g id="Groupe_354" data-name="Groupe 354">
              <g id="Groupe_353" data-name="Groupe 353" clip-path="url(#clip-path)">
                <path id="Tracé_189" data-name="Tracé 189" d="M0,25A25,25,0,1,1,25,50,25,25,0,0,1,0,25" transform="translate(0 -0.003)" fill="#f97316"/>
              </g>
            </g>
          </g>
          <path id="Tracé_190" data-name="Tracé 190" d="M16.274,36.075a2.091,2.091,0,0,1-.908-.212c-.99-.477-2.6-1.267-4.558-2.3l-.823-.444c-.745-.4-1.552-.827-2.375-1.3a13,13,0,0,1-3.817-3.413,5.881,5.881,0,0,1-.77-1.625,5.458,5.458,0,0,1-.179-1.2c-.016-1.079.016-8.391.081-17.7A2.053,2.053,0,0,1,4.319,5.944l11.3-3.768a2.04,2.04,0,0,1,1.3,0l11.3,3.768a2.076,2.076,0,0,1,1.409,1.927v.012c.057,9.218.09,16.623.077,17.609a4.834,4.834,0,0,1-.187,1.3,5.481,5.481,0,0,1-.774,1.625,9.841,9.841,0,0,1-1.251,1.458,13.891,13.891,0,0,1-2.562,1.943c-1.12.631-2.191,1.214-3.2,1.743-1.955,1.026-3.56,1.821-4.566,2.3a1.992,1.992,0,0,1-.892.208M4.856,26.287a4.087,4.087,0,0,0,.5,1.047,11.076,11.076,0,0,0,3.189,2.835c.811.464,1.6.884,2.342,1.279l.811.44c1.927,1.014,3.511,1.792,4.5,2.269a.143.143,0,0,0,.134,0c1-.481,2.591-1.263,4.521-2.277.99-.517,2.045-1.092,3.145-1.715a12.142,12.142,0,0,0,2.171-1.65,8.384,8.384,0,0,0,1.018-1.185,3.657,3.657,0,0,0,.5-1.043,2.924,2.924,0,0,0,.122-.811c.012-.986-.02-8.371-.077-17.576a.177.177,0,0,0-.114-.163L16.323,3.977a.146.146,0,0,0-.1,0L4.922,7.745a.151.151,0,0,0-.1.143c-.069,10.151-.094,16.733-.086,17.58a3.7,3.7,0,0,0,.118.819" transform="translate(8.728 6.361)" fill="#f97316"/>
          <path id="Tracé_191" data-name="Tracé 191" d="M9.161,5.756a1.821,1.821,0,0,0,3.642,0,1.765,1.765,0,0,0-1.821-1.809A1.767,1.767,0,0,0,9.161,5.756ZM5.222,11.935a8.448,8.448,0,0,0,0,1.063l1.589-1.91c.33-.358.709-.611.9-.542a.412.412,0,0,1,.236.509l-2.627,8.7C5.022,20.778,5.6,21.776,6.994,22c2.041,0,3.255-1.381,4.448-3.173a8.388,8.388,0,0,0,.029-1.1l-1.589,1.91c-.326.358-.737.611-.929.542a.411.411,0,0,1-.253-.46l2.648-8.749A1.786,1.786,0,0,0,9.707,8.729c-1.328,0-3.291,1.413-4.485,3.206" transform="translate(15.996 12.13)" fill="#f97316"/>
        </g>
      </g>
    </g>
  </svg>
  