<svg xmlns="http://www.w3.org/2000/svg" xmlns:xlink="http://www.w3.org/1999/xlink" width="37.071" height="35.611" viewBox="0 0 37.071 35.611"><script xmlns="" id="nimlmejbmnecnaghgmbahmbaddhjbecg"/><script xmlns=""/><script xmlns=""/><script xmlns=""/>
    <defs>
      <clipPath id="clip-path">
        <rect id="Rectangle_216" data-name="Rectangle 216" width="37.071" height="35.611" transform="translate(0 0)" fill="none"/>
      </clipPath>
    </defs>
    <g id="locataire" transform="translate(0 0)">
      <g id="Groupe_778" data-name="Groupe 778" clip-path="url(#clip-path)">
        <path id="Tracé_275" data-name="Tracé 275" d="M36.321,17.948,19.538,1.165a1.416,1.416,0,0,0-2,0L.75,17.948" fill="none" stroke="#3e3e3e" stroke-linecap="round" stroke-linejoin="round" stroke-width="1.5"/>
        <path id="Tracé_276" data-name="Tracé 276" d="M32.421,17.382V34.861H4.009V18.024" fill="none" stroke="#3e3e3e" stroke-linecap="round" stroke-linejoin="round" stroke-width="1.5"/>
        <path id="Tracé_277" data-name="Tracé 277" d="M4.008,10.086V4.076H9.489V5.809" fill="none" stroke="#3e3e3e" stroke-linecap="round" stroke-linejoin="round" stroke-width="1.5"/>
        <path id="Tracé_278" data-name="Tracé 278" d="M23.193,17.787a7.388,7.388,0,0,0-4.979-1.928A7.627,7.627,0,1,0,25.7,23.485a7.781,7.781,0,0,0-.269-2.034" fill="none" stroke="#3e3e3e" stroke-linecap="round" stroke-linejoin="round" stroke-width="1.5"/>
        <path id="Tracé_279" data-name="Tracé 279" d="M18.214,19.714v4.219l3.884,2.65" fill="none" stroke="#3e3e3e" stroke-linecap="round" stroke-linejoin="round" stroke-width="1.5"/>
        <path id="Tracé_280" data-name="Tracé 280" d="M23.056,15.505l.184,2.473-2.284.176" fill="none" stroke="#3e3e3e" stroke-linecap="round" stroke-linejoin="round" stroke-width="1.5"/>
      </g>
    </g>
  <script xmlns=""/>
</svg>