
<svg xmlns="http://www.w3.org/2000/svg" xmlns:xlink="http://www.w3.org/1999/xlink" width="50.107" height="50.109" viewBox="0 0 50.107 50.109">
    <defs>
      <clipPath id="clip-path">
        <rect id="Rectangle_145" data-name="Rectangle 145" width="50.107" height="50.109" fill="none"/>
      </clipPath>
    </defs>
    <g id="nonassurer" transform="translate(0 0)">
      <g id="Groupe_358" data-name="Groupe 358" transform="translate(0 0)" clip-path="url(#clip-path)">
        <g id="Groupe_357" data-name="Groupe 357" transform="translate(0 0)">
          <g id="Groupe_356" data-name="Groupe 356" clip-path="url(#clip-path)">
            <g id="Groupe_355" data-name="Groupe 355" opacity="0.15">
              <g id="Groupe_354" data-name="Groupe 354">
                <g id="Groupe_353" data-name="Groupe 353" clip-path="url(#clip-path)">
                  <path id="Tracé_189" data-name="Tracé 189" d="M0,25.056A25.054,25.054,0,1,1,25.056,50.112,25.056,25.056,0,0,1,0,25.056" transform="translate(0 -0.003)" fill="#f4627f"/>
                </g>
              </g>
            </g>
            <path id="Tracé_190" data-name="Tracé 190" d="M16.3,36.149a2.1,2.1,0,0,1-.91-.212c-.992-.478-2.6-1.27-4.568-2.306L10,33.185c-.747-.4-1.555-.829-2.38-1.3A13.027,13.027,0,0,1,3.8,28.466a5.894,5.894,0,0,1-.772-1.629,5.47,5.47,0,0,1-.18-1.2c-.016-1.082.016-8.409.082-17.737a2.058,2.058,0,0,1,1.4-1.943L15.646,2.177a2.044,2.044,0,0,1,1.306,0l11.32,3.776a2.081,2.081,0,0,1,1.412,1.931V7.9c.057,9.238.09,16.659.078,17.647a4.844,4.844,0,0,1-.188,1.306,5.492,5.492,0,0,1-.776,1.629,9.862,9.862,0,0,1-1.253,1.461,13.921,13.921,0,0,1-2.568,1.947c-1.123.633-2.2,1.217-3.2,1.747-1.959,1.029-3.568,1.825-4.576,2.306a2,2,0,0,1-.894.208M4.861,26.339a4.1,4.1,0,0,0,.5,1.049,11.1,11.1,0,0,0,3.2,2.841c.812.465,1.6.886,2.347,1.282l.812.441c1.931,1.016,3.519,1.8,4.507,2.274a.144.144,0,0,0,.135,0c1-.482,2.6-1.265,4.531-2.282.992-.518,2.049-1.094,3.151-1.719a12.168,12.168,0,0,0,2.176-1.653,8.4,8.4,0,0,0,1.021-1.188,3.665,3.665,0,0,0,.5-1.045,2.93,2.93,0,0,0,.122-.812c.012-.988-.02-8.389-.078-17.615a.178.178,0,0,0-.114-.163L16.352,3.981a.146.146,0,0,0-.1,0L4.926,7.757a.151.151,0,0,0-.1.143c-.069,10.173-.094,16.77-.086,17.619a3.7,3.7,0,0,0,.118.821" transform="translate(8.753 6.379)" fill="#f4627f"/>
            <path id="Tracé_191" data-name="Tracé 191" d="M7.257,6.594a.71.71,0,0,1,.51.212l2.886,2.939L13.6,6.859a.711.711,0,0,1,.5-.208.716.716,0,0,1,.5,1.229l-2.935,2.89,2.882,2.939a.707.707,0,0,1,0,1.008.721.721,0,0,1-.506.208.729.729,0,0,1-.51-.216L10.641,11.77,7.7,14.66a.72.72,0,0,1-.5.2.706.706,0,0,1-.51-.208.721.721,0,0,1,.008-1.016L9.632,10.75,6.746,7.806A.715.715,0,0,1,6.754,6.8a.707.707,0,0,1,.5-.2m0-1.829A2.54,2.54,0,0,0,5.444,9.088l1.6,1.637L5.416,12.333A2.539,2.539,0,0,0,7.2,16.689a2.519,2.519,0,0,0,1.768-.714l1.653-1.621,1.6,1.637a2.545,2.545,0,0,0,4.36-1.772,2.514,2.514,0,0,0-.743-1.8l-1.6-1.625,1.637-1.608a2.548,2.548,0,0,0,.033-3.6A2.554,2.554,0,0,0,14.1,4.826a2.527,2.527,0,0,0-1.784.731l-1.637,1.6L9.069,5.524a2.525,2.525,0,0,0-1.812-.759" transform="translate(14.366 14.687)" fill="#f4627f"/>
          </g>
        </g>
      </g>
    </g>
  </svg>
  