<svg xmlns="http://www.w3.org/2000/svg" xmlns:xlink="http://www.w3.org/1999/xlink" width="37.071" height="35.611" viewBox="0 0 37.071 35.611"><script xmlns="" id="nimlmejbmnecnaghgmbahmbaddhjbecg"/><script xmlns=""/><script xmlns=""/><script xmlns=""/>
    <defs>
      <clipPath id="clip-path">
        <rect id="Rectangle_218" data-name="Rectangle 218" width="37.071" height="35.611" transform="translate(0 0)" fill="none"/>
      </clipPath>
    </defs>
    <g id="occupant" transform="translate(0 0)">
      <g id="Groupe_782" data-name="Groupe 782" clip-path="url(#clip-path)">
        <path id="Tracé_286" data-name="Tracé 286" d="M36.321,17.948,19.538,1.165a1.416,1.416,0,0,0-2,0L.75,17.948" fill="none" stroke="#3e3e3e" stroke-linecap="round" stroke-linejoin="round" stroke-width="1.5"/>
        <path id="Tracé_287" data-name="Tracé 287" d="M32.421,17.382V34.861H4.009V18.024" fill="none" stroke="#3e3e3e" stroke-linecap="round" stroke-linejoin="round" stroke-width="1.5"/>
        <path id="Tracé_288" data-name="Tracé 288" d="M4.008,10.086V4.076H9.489V5.809" fill="none" stroke="#3e3e3e" stroke-linecap="round" stroke-linejoin="round" stroke-width="1.5"/>
        <path id="Tracé_289" data-name="Tracé 289" d="M21.593,18.885a3.381,3.381,0,1,1-3.381-3.379h0A3.38,3.38,0,0,1,21.593,18.885Z" fill="none" stroke="#3e3e3e" stroke-linecap="round" stroke-linejoin="round" stroke-width="1.5"/>
        <path id="Tracé_290" data-name="Tracé 290" d="M24.581,28.875a6.338,6.338,0,0,1-.384,2.181,19.693,19.693,0,0,1-5.983.889,19.726,19.726,0,0,1-5.982-.888,6.368,6.368,0,1,1,12.351-2.181Z" fill="none" stroke="#3e3e3e" stroke-linecap="round" stroke-linejoin="round" stroke-width="1.5"/>
      </g>
    </g>
  <script xmlns=""/>
</svg>