
<svg xmlns="http://www.w3.org/2000/svg" xmlns:xlink="http://www.w3.org/1999/xlink" width="50" height="50" viewBox="0 0 50 50">
    <defs>
      <clipPath id="clip-path">
        <rect id="Rectangle_145" data-name="Rectangle 145" width="50" height="50" fill="none"/>
      </clipPath>
    </defs>
    <g id="option" transform="translate(-10092 -9053)">
      <g id="Groupe_358" data-name="Groupe 358" transform="translate(10092 9053)" clip-path="url(#clip-path)">
        <g id="Groupe_357" data-name="Groupe 357">
          <g id="Groupe_356" data-name="Groupe 356" clip-path="url(#clip-path)">
            <g id="Groupe_355" data-name="Groupe 355" opacity="0.15">
              <g id="Groupe_354" data-name="Groupe 354">
                <g id="Groupe_353" data-name="Groupe 353" clip-path="url(#clip-path)">
                  <path id="Tracé_189" data-name="Tracé 189" d="M0,25A25,25,0,1,1,25,50,25,25,0,0,1,0,25" transform="translate(0 -0.003)" fill="#b0e2fd"/>
                </g>
              </g>
            </g>
          </g>
        </g>
      </g>
      <g id="settings" transform="translate(10101.285 9061.689)">
        <path id="Tracé_773" data-name="Tracé 773" d="M20.164,15.75a5.431,5.431,0,1,0,5.431,5.431,5.431,5.431,0,0,0-5.431-5.431Zm0,8.886a3.456,3.456,0,1,1,3.456-3.456,3.456,3.456,0,0,1-3.456,3.456Z" transform="translate(-4.448 -4.87)" fill="#b0e2fd"/>
        <path id="Tracé_774" data-name="Tracé 774" d="M29.264,20.4,27.3,18.789a11.915,11.915,0,0,0,0-4.957l1.961-1.614a1.231,1.231,0,0,0,.284-1.57L27.535,7.163a1.23,1.23,0,0,0-1.5-.539l-2.38.892a11.851,11.851,0,0,0-4.291-2.48l-.418-2.5A1.23,1.23,0,0,0,17.727,1.5H13.7a1.23,1.23,0,0,0-1.217,1.031l-.417,2.5a11.85,11.85,0,0,0-4.291,2.48L5.4,6.624a1.23,1.23,0,0,0-1.5.539L1.882,10.648a1.231,1.231,0,0,0,.284,1.57l1.96,1.614a11.915,11.915,0,0,0,0,4.957L2.167,20.4a1.231,1.231,0,0,0-.284,1.57l2.013,3.486A1.23,1.23,0,0,0,5.4,26l2.38-.892a11.85,11.85,0,0,0,4.291,2.48l.417,2.5A1.23,1.23,0,0,0,13.7,31.122h4.025a1.23,1.23,0,0,0,1.217-1.031l.417-2.5a11.851,11.851,0,0,0,4.291-2.48l2.38.892a1.23,1.23,0,0,0,1.5-.539l2.012-3.486A1.23,1.23,0,0,0,29.264,20.4Zm-3.125,3.525L23.17,22.816l-.45.453a9.871,9.871,0,0,1-4.482,2.59l-.617.163L17.1,29.147H14.33l-.521-3.125-.617-.163a9.871,9.871,0,0,1-4.482-2.59l-.45-.453L5.291,23.928l-1.385-2.4,2.446-2.013L6.185,18.9a9.929,9.929,0,0,1,0-5.179l.167-.615L3.906,11.092l1.385-2.4L8.261,9.805l.45-.453a9.871,9.871,0,0,1,4.482-2.59l.617-.163.521-3.125H17.1L17.621,6.6l.617.163a9.871,9.871,0,0,1,4.482,2.59l.45.453,2.969-1.112,1.385,2.4-2.446,2.013.167.615a9.929,9.929,0,0,1,0,5.179l-.167.615,2.446,2.013Z" transform="translate(0)" fill="#b0e2fd"/>
      </g>
    </g>
  </svg>
  