
<svg xmlns="http://www.w3.org/2000/svg" xmlns:xlink="http://www.w3.org/1999/xlink" width="21.788" height="35.363" viewBox="0 0 21.788 35.363">
  <defs>
    <clipPath id="clip-path">
      <rect id="Rectangle_68" data-name="Rectangle 68" width="21.788" height="35.363" transform="translate(0 0)" fill="none"/>
    </clipPath>
  </defs>
  <g id="optimal" clip-path="url(#clip-path)">
    <path id="Tracé_90" data-name="Tracé 90" d="M10.895,27.576a1.681,1.681,0,0,1-.727-.168C8,26.359,5.878,25.256,3.873,24.127a10.391,10.391,0,0,1-3.1-2.77,4.787,4.787,0,0,1-.622-1.309,4.706,4.706,0,0,1-.147-.975l0-.083c-.008-.811.017-6.739.065-14.271a1.672,1.672,0,0,1,1.14-1.576L10.366.086a1.666,1.666,0,0,1,1.057,0l9.158,3.057A1.672,1.672,0,0,1,21.722,4.72c.048,7.519.074,13.44.065,14.267a4.023,4.023,0,0,1-.152,1.067,4.545,4.545,0,0,1-.627,1.312,10.375,10.375,0,0,1-3.092,2.762c-2.559,1.439-4.837,2.58-6.3,3.282a1.669,1.669,0,0,1-.725.167M1.638,19.644a3.372,3.372,0,0,0,.406.842,8.972,8.972,0,0,0,2.586,2.3c1.975,1.111,4.064,2.2,6.207,3.235a.125.125,0,0,0,.113,0c1.441-.693,3.687-1.817,6.209-3.236a8.967,8.967,0,0,0,2.583-2.3,3.1,3.1,0,0,0,.408-.847,2.447,2.447,0,0,0,.1-.66v-.008c.007-.7-.012-6.04-.065-14.245a.134.134,0,0,0-.088-.126L10.935,1.546a.143.143,0,0,0-.082,0L1.694,4.6a.134.134,0,0,0-.088.125c-.053,8.207-.072,13.547-.065,14.246a3.231,3.231,0,0,0,.1.669Z" transform="translate(0 0)" fill="#3e3e3e"/>
    <path id="Tracé_91" data-name="Tracé 91" d="M19.434,6.669V19.394a3.923,3.923,0,0,1-.57,1.386,4.453,4.453,0,0,1-1.509,1.378c-2.132,1.27-5.134,2.74-5.458,2.894-.323-.154-3.325-1.624-5.458-2.894a4.453,4.453,0,0,1-1.509-1.378,3.923,3.923,0,0,1-.57-1.386V6.669L11.9,4.406Z" transform="translate(-1.004 -1.015)" fill="#3e3e3e"/>
    <path id="Tracé_92" data-name="Tracé 92" d="M4.622,42.321a2.264,2.264,0,1,1-2.264-2.264,2.264,2.264,0,0,1,2.264,2.264" transform="translate(-0.022 -9.222)" fill="#3e3e3e"/>
    <path id="Tracé_93" data-name="Tracé 93" d="M12.034,42.321A2.264,2.264,0,1,1,9.77,40.057a2.264,2.264,0,0,1,2.264,2.264" transform="translate(-1.728 -9.222)" fill="#3e3e3e"/>
    <path id="Tracé_94" data-name="Tracé 94" d="M19.445,42.321a2.264,2.264,0,1,1-2.264-2.264,2.264,2.264,0,0,1,2.264,2.264" transform="translate(-3.434 -9.222)" fill="#3e3e3e"/>
    <path id="Tracé_95" data-name="Tracé 95" d="M26.857,42.321a2.264,2.264,0,1,1-2.264-2.264,2.264,2.264,0,0,1,2.264,2.264" transform="translate(-5.141 -9.222)" fill="#3e3e3e"/>
  </g>
</svg>
