
<svg xmlns="http://www.w3.org/2000/svg" width="25.234" height="29.439" viewBox="0 0 25.234 29.439">
    <g id="pdffile" transform="translate(0 0)">
      <path id="Tracé_168" data-name="Tracé 168" d="M24.117,6.243a3.822,3.822,0,0,1,.789,1.249,3.793,3.793,0,0,1,.329,1.446V27.862a1.571,1.571,0,0,1-1.577,1.577H1.577a1.521,1.521,0,0,1-1.117-.46A1.521,1.521,0,0,1,0,27.862V1.577A1.521,1.521,0,0,1,.46.46,1.521,1.521,0,0,1,1.577,0H16.3a3.792,3.792,0,0,1,1.446.329,3.822,3.822,0,0,1,1.249.789ZM16.822,2.234V8.411H23a1.794,1.794,0,0,0-.361-.674L17.5,2.6A1.794,1.794,0,0,0,16.822,2.234Zm6.308,25.1V10.514H16.3A1.571,1.571,0,0,1,14.72,8.937V2.1H2.1V27.337Zm-8.444-9.742a12.5,12.5,0,0,0,1.38.92,16.3,16.3,0,0,1,1.922-.115q2.415,0,2.908.8a.794.794,0,0,1,.033.854.047.047,0,0,1-.016.033l-.033.033v.016q-.1.624-1.166.624a6.777,6.777,0,0,1-1.889-.329,11.977,11.977,0,0,1-2.136-.871,29.583,29.583,0,0,0-6.44,1.364q-2.514,4.3-3.976,4.3a.955.955,0,0,1-.46-.115l-.394-.2q-.016-.016-.1-.082a.679.679,0,0,1-.1-.591,3.568,3.568,0,0,1,.92-1.5A7.94,7.94,0,0,1,7.311,21.16a.24.24,0,0,1,.378.1.1.1,0,0,1,.033.066q.854-1.4,1.758-3.236a25.071,25.071,0,0,0,1.709-4.3,13.28,13.28,0,0,1-.5-2.62,6.388,6.388,0,0,1,.107-2.095q.181-.657.69-.657h.361a.693.693,0,0,1,.575.246,1.312,1.312,0,0,1,.148,1.117.357.357,0,0,1-.066.131.427.427,0,0,1,.016.131v.493a21.512,21.512,0,0,1-.23,3.154A8.311,8.311,0,0,0,14.687,17.595ZM5.224,24.347a7.254,7.254,0,0,0,2.251-2.6,9.365,9.365,0,0,0-1.437,1.38A5.46,5.46,0,0,0,5.224,24.347ZM11.763,9.233A4.885,4.885,0,0,0,11.73,11.4q.016-.115.115-.723,0-.049.115-.706a.37.37,0,0,1,.066-.131.047.047,0,0,1-.016-.033.126.126,0,0,1-.016-.049.946.946,0,0,0-.214-.591.047.047,0,0,1-.016.033ZM9.725,20.092a24.1,24.1,0,0,1,4.666-1.331,2.483,2.483,0,0,1-.214-.156,2.936,2.936,0,0,1-.263-.222,8.7,8.7,0,0,1-2.086-2.891,21.95,21.95,0,0,1-1.364,3.236Q9.972,19.648,9.725,20.092Zm10.613-.263a3.931,3.931,0,0,0-2.3-.394,6.214,6.214,0,0,0,2.037.46,1.592,1.592,0,0,0,.3-.016Q20.371,19.862,20.338,19.829Z" transform="translate(0 0)" fill="#959595"/>
    </g>
  </svg>
  