
<svg xmlns="http://www.w3.org/2000/svg" xmlns:xlink="http://www.w3.org/1999/xlink" width="39.988" height="40" viewBox="0 0 39.988 40">
    <defs>
      <clipPath id="clip-path">
        <rect id="Rectangle_191" data-name="Rectangle 191" width="39.988" height="40" fill="none"/>
      </clipPath>
    </defs>
    <g id="piece" transform="translate(0 0)">
      <g id="Groupe_729" data-name="Groupe 729" transform="translate(0 0)" clip-path="url(#clip-path)">
        <path id="Tracé_197" data-name="Tracé 197" d="M37.708,1.088h-19.9V16.078c0,.176,0,.342-.009.518a.276.276,0,0,0,.078.224.269.269,0,0,0,.225.078c.224,0,.439-.009.663-.009H29.915a1.506,1.506,0,0,1,.313.03.524.524,0,0,1-.039,1.046.569.569,0,0,1-.126.009L30,17.963l-11.826.009c-.146,0-.235,0-.3.068s-.078.165-.078.322c.009,1.405.009,2.812.009,4.208a.524.524,0,0,1-.341.566.492.492,0,0,1-.566-.117,1.115,1.115,0,0,1-.148-.341l-.019-.089a.347.347,0,0,1-.009-.107.252.252,0,0,0,.009-.078V1.088h-9V30.306c0,.148,0,.283-.009.431a.342.342,0,0,0,.068.243.328.328,0,0,0,.254.089c2.227-.011,4.443-.011,6.66-.011h2.031v-3.3a1.414,1.414,0,0,1,.03-.3.488.488,0,0,1,.439-.381.493.493,0,0,1,.537.313,1.012,1.012,0,0,1,.068.391c0,.987,0,1.973-.009,2.949a.327.327,0,0,0,.087.254.308.308,0,0,0,.244.089q7.558-.016,15.107-.011H37.7V17.963H35.051L35,17.973a.314.314,0,0,1-.1-.009.558.558,0,0,1-.585-.518.528.528,0,0,1,.546-.527,4.44,4.44,0,0,1,.625-.03h2.226l-.009-3.369V5.259a2.2,2.2,0,0,1,.029-.4.52.52,0,0,1,.478-.4h.03a.489.489,0,0,1,.459.322,1.722,1.722,0,0,1,.078.5V31.322a1.568,1.568,0,0,1-.019.293.567.567,0,0,1-.625.518H7.279c-.43-.009-.625-.205-.625-.644V.7C6.654.238,6.83.044,7.3,0a1.093,1.093,0,0,1,.176,0H38.118c.448.03.654.235.663.664.011.644.011,1.289,0,1.944a.6.6,0,0,1-.195.468.488.488,0,0,1-.507.127.465.465,0,0,1-.342-.411c-.02-.283-.02-.576-.029-.859Z" transform="translate(1.198 0)" fill="#3e3e3e"/>
        <path id="Tracé_198" data-name="Tracé 198" d="M38.478,31.492c-.811-.518-1.631-1.025-2.451-1.533-.391-.235-.781-.479-1.162-.723a.494.494,0,0,0-.507-.019.536.536,0,0,0-.283.45c0,.332-.009.674-.009,1.005v.254a1.708,1.708,0,0,0-.009.224l-.02.264h-.342q-11,0-22.011.009a.307.307,0,0,1-.244-.087.288.288,0,0,1-.078-.235c0-.371.009-.859-.009-1.357a.729.729,0,0,0-.079-.342.457.457,0,0,0-.293-.235.688.688,0,0,0-.527.118c-1.152.722-2.314,1.446-3.456,2.177a.6.6,0,0,0-.332.479.641.641,0,0,0,.332.507c.205.137.409.263.615.391l.82.518c.664.419,1.338.839,2.012,1.25a.881.881,0,0,0,.479.126.489.489,0,0,0,.439-.537V32.517l.176-.02a.529.529,0,0,1,.117-.009H33.761a.263.263,0,0,1,.3.3c-.009.576,0,1.024.009,1.444a.5.5,0,0,0,.352.479c.215.087.381,0,.6-.127.5-.3,1-.615,1.485-.918l.487-.3c.5-.313,1.007-.625,1.5-.957a.576.576,0,0,0,.283-.468.562.562,0,0,0-.3-.45M10.256,33.221,8.2,31.942l2.06-1.27Zm24.911.009V30.681l2.051,1.27Z" transform="translate(1.2 5.25)" fill="#3e3e3e"/>
        <path id="Tracé_199" data-name="Tracé 199" d="M5.389,26.194a.814.814,0,0,0-.43-.137c-.341-.011-.683-.011-1.044-.011H3.339l-.02-.195v-.107L3.31,8.85l.009-.215c0-.157,0-.313-.009-.468a.5.5,0,0,0-.5-.509.534.534,0,0,0-.548.479c-.009.117-.019.244-.019.371q0,8.585.009,17.177a.392.392,0,0,1-.087.283.321.321,0,0,1-.264.078H1.268c-.244,0-.478,0-.722.011a.485.485,0,0,0-.537.448.83.83,0,0,0,.137.44c.126.234.263.459.409.683l.5.8c.42.674.831,1.348,1.26,2.011a.5.5,0,0,0,.7.254.877.877,0,0,0,.3-.3c.42-.654.82-1.309,1.231-1.962.313-.509.624-1.025.928-1.544a.494.494,0,0,0-.089-.693M3.954,27.375c-.352.557-.683,1.083-1.035,1.66l-.127.195-.126-.195c-.352-.566-.684-1.1-1.035-1.66l-.148-.224H4.091Z" transform="translate(0.001 1.379)" fill="#3e3e3e"/>
        <path id="Tracé_200" data-name="Tracé 200" d="M5.5,3.917c-.068-.127-.146-.244-.215-.361l-2-3.2A.572.572,0,0,0,2.922.041c-.177-.05-.392-.05-.616.3s-.468.733-.693,1.1l-.274.44c-.127.2-.254.409-.381.615C.675,2.94.392,3.39.129,3.839a.616.616,0,0,0-.079.605.6.6,0,0,0,.557.263c.264.009.527.009.792.009h.35c.254,0,.362,0,.44.079a.354.354,0,0,1,.058.293v.146c0,.293,0,.576.011.869,0,.557,0,1.114.009,1.671a.5.5,0,0,0,.518.487h.009a.538.538,0,0,0,.527-.527V4.747l.224-.019c.137-.011.274-.011.4-.011h.5c.205,0,.411,0,.616-.009A.519.519,0,0,0,5.5,3.917M1.525,3.6l1.27-2.09L4.074,3.6Z" transform="translate(0 0.003)" fill="#3e3e3e"/>
      </g>
    </g>
  </svg>
  