
<svg id="responsable" xmlns="http://www.w3.org/2000/svg" xmlns:xlink="http://www.w3.org/1999/xlink" width="33.453" height="40.076" viewBox="0 0 33.453 40.076">
    <defs>
      <clipPath id="clip-path">
        <rect id="Rectangle_239" data-name="Rectangle 239" width="33.453" height="40.076" fill="none"/>
      </clipPath>
      <clipPath id="clip-path-2">
        <rect id="Rectangle_238" data-name="Rectangle 238" width="33.453" height="40.075" fill="none"/>
      </clipPath>
    </defs>
    <g id="Groupe_821" data-name="Groupe 821" clip-path="url(#clip-path)">
      <g id="Groupe_820" data-name="Groupe 820" transform="translate(0 0)">
        <g id="Groupe_819" data-name="Groupe 819" clip-path="url(#clip-path-2)">
          <g id="Groupe_818" data-name="Groupe 818" transform="translate(0 0)" opacity="0.6">
            <g id="Groupe_817" data-name="Groupe 817">
              <g id="Groupe_816" data-name="Groupe 816" clip-path="url(#clip-path)">
                <g id="Groupe_815" data-name="Groupe 815" transform="translate(0 0)">
                  <g id="Groupe_814" data-name="Groupe 814" clip-path="url(#clip-path-2)">
                    <path id="Tracé_316" data-name="Tracé 316" d="M25.358,9.884A9.553,9.553,0,1,1,15.806.332a9.553,9.553,0,0,1,9.552,9.552M14.22,16.846q.476-.293,1.368-.733A2.392,2.392,0,0,0,17,13.723a2.878,2.878,0,0,1,.03-.7q.169-.449.852-.2,2.593.932,1.507,3.539-.337.815-.639,1.642c-.026.074,0,.1.07.067A8.76,8.76,0,0,0,24.429,11.3a.153.153,0,0,0-.119-.181.028.028,0,0,0-.014,0,2.41,2.41,0,0,0-2.248.943,1.735,1.735,0,0,1-1.273.8Q19.3,12.853,19.4,11.569a2.271,2.271,0,0,1,.264-.682.694.694,0,0,0-.031-.8,2.081,2.081,0,0,0-.8-.458A4.529,4.529,0,0,1,18,9.219a1.292,1.292,0,0,1-.537-1.747,1.276,1.276,0,0,1,.09-.146,6.6,6.6,0,0,0,.592-1.233.177.177,0,0,0-.053-.189,2.325,2.325,0,0,0-1.015-.442,1.994,1.994,0,0,1-.908-.506,2.643,2.643,0,0,1-.6-.821,3.767,3.767,0,0,1-.145-2.81.14.14,0,0,0-.091-.176h0a.144.144,0,0,0-.059-.006A8.834,8.834,0,0,0,7.35,7.653a.153.153,0,0,0,.081.186A4.129,4.129,0,0,1,9.315,9.453c0,.008.114.244.326.71a2.618,2.618,0,0,0,.532.77.358.358,0,0,0,.2.1,1.261,1.261,0,0,0,1.063-.346,2.474,2.474,0,0,1,2.961-.58A2.387,2.387,0,0,1,15.6,11.33a2.286,2.286,0,0,1-.1,1.879,2.392,2.392,0,0,1-2.068,1.48q-.421.043-.839.1a1.618,1.618,0,0,0-.77.28,3.464,3.464,0,0,0-1.2,1.668.157.157,0,0,0,.053.18,8.336,8.336,0,0,0,2.306,1.23.163.163,0,0,0,.178-.062c.151-.206.3-.415.445-.626a2.109,2.109,0,0,1,.616-.612m4.408-8.258a7.984,7.984,0,0,1,1.021.476,1.933,1.933,0,0,1,.816.733,1.418,1.418,0,0,1-.113,1.436q-.463.789.275.807a.753.753,0,0,0,.639-.311,3.443,3.443,0,0,1,3.14-1.435.111.111,0,0,0,.12-.1v-.006A8.346,8.346,0,0,0,22.958,4.9a8.734,8.734,0,0,0-6.429-3.71.229.229,0,0,0-.244.165q-.811,2.716,1.423,3.45a3.143,3.143,0,0,1,.9.391A1.123,1.123,0,0,1,18.994,6.2a2.219,2.219,0,0,1-.266.766c-.129.244-.262.483-.4.719q-.378.64.3.9M9.195,11.051a8.94,8.94,0,0,1-.563-.984A3.05,3.05,0,0,0,7.32,8.7a.118.118,0,0,0-.161.049h0a.125.125,0,0,0-.013.045,8.811,8.811,0,0,0,2.629,7.393.1.1,0,0,0,.138,0l.009-.012a8.09,8.09,0,0,0,.47-.733,4.471,4.471,0,0,1,.541-.807,1.979,1.979,0,0,1,1.465-.679,3.505,3.505,0,0,0,1.6-.245,1.624,1.624,0,0,0,.916-1.677,1.479,1.479,0,0,0-.612-1.055,1.58,1.58,0,0,0-1.311-.259,2.091,2.091,0,0,0-.755.377c-.23.166-.465.328-.7.488A1.553,1.553,0,0,1,10,11.805a1.9,1.9,0,0,1-.807-.757m8.878,2.722a.1.1,0,0,0-.145.021.1.1,0,0,0-.018.041A4.06,4.06,0,0,1,15.3,17.164a2.055,2.055,0,0,0-1.231,1.121.093.093,0,0,0,.046.124h0a.057.057,0,0,0,.02.007,7.827,7.827,0,0,0,3.286.01.247.247,0,0,0,.168-.124,17.175,17.175,0,0,0,1.274-2.731,1.664,1.664,0,0,0-.793-1.8" transform="translate(0.943 0.05)" fill="#f97316"/>
                    <path id="Tracé_317" data-name="Tracé 317" d="M25.359,9.885A9.553,9.553,0,1,1,15.805.333,9.553,9.553,0,0,1,25.359,9.885ZM14.22,16.847q.476-.293,1.37-.733A2.394,2.394,0,0,0,17,13.724a2.822,2.822,0,0,1,.03-.7q.167-.449.851-.2,2.593.932,1.508,3.539-.338.815-.639,1.642c-.028.074,0,.1.069.067A8.758,8.758,0,0,0,24.429,11.3a.151.151,0,0,0-.119-.18.028.028,0,0,0-.014,0,2.4,2.4,0,0,0-2.247.943,1.74,1.74,0,0,1-1.274.8Q19.3,12.854,19.4,11.57a2.271,2.271,0,0,1,.264-.682.7.7,0,0,0-.032-.8,2.078,2.078,0,0,0-.8-.457A4.519,4.519,0,0,1,18,9.22a1.293,1.293,0,0,1-.539-1.748,1.693,1.693,0,0,1,.09-.145,6.53,6.53,0,0,0,.593-1.233.179.179,0,0,0-.053-.189,2.317,2.317,0,0,0-1.015-.442,1.982,1.982,0,0,1-.908-.506,2.665,2.665,0,0,1-.6-.821,3.778,3.778,0,0,1-.145-2.81.141.141,0,0,0-.09-.177h0a.128.128,0,0,0-.059-.006A8.834,8.834,0,0,0,7.351,7.654a.153.153,0,0,0,.081.186A4.134,4.134,0,0,1,9.316,9.454c0,.008.113.244.326.71a2.611,2.611,0,0,0,.532.77.354.354,0,0,0,.2.1,1.263,1.263,0,0,0,1.063-.348,2.473,2.473,0,0,1,2.961-.58A2.391,2.391,0,0,1,15.6,11.331a2.286,2.286,0,0,1-.1,1.879,2.394,2.394,0,0,1-2.068,1.48q-.421.043-.84.1a1.61,1.61,0,0,0-.769.28,3.456,3.456,0,0,0-1.2,1.668.155.155,0,0,0,.053.18,8.314,8.314,0,0,0,2.305,1.23.162.162,0,0,0,.178-.062c.151-.206.3-.415.447-.627A2.118,2.118,0,0,1,14.22,16.847ZM18.627,8.59a8,8,0,0,1,1.022.476,1.933,1.933,0,0,1,.816.733,1.416,1.416,0,0,1-.114,1.436q-.461.791.275.807a.75.75,0,0,0,.639-.311A3.444,3.444,0,0,1,24.4,10.3a.11.11,0,0,0,.12-.1v-.006A8.345,8.345,0,0,0,22.959,4.9a8.735,8.735,0,0,0-6.43-3.714.229.229,0,0,0-.243.163Q15.475,4.069,17.709,4.8a3.151,3.151,0,0,1,.9.39A1.123,1.123,0,0,1,18.993,6.2a2.214,2.214,0,0,1-.265.768c-.129.244-.262.483-.4.719q-.38.639.3.9ZM9.2,11.052a9.056,9.056,0,0,1-.564-.984A3.062,3.062,0,0,0,7.321,8.7a.121.121,0,0,0-.162.051.1.1,0,0,0-.014.045,8.816,8.816,0,0,0,2.629,7.393.1.1,0,0,0,.139,0h0l.009-.01a7.989,7.989,0,0,0,.468-.733,4.533,4.533,0,0,1,.541-.807A1.979,1.979,0,0,1,12.4,13.96a3.508,3.508,0,0,0,1.6-.245,1.623,1.623,0,0,0,.915-1.677,1.474,1.474,0,0,0-.611-1.055,1.582,1.582,0,0,0-1.312-.259,2.1,2.1,0,0,0-.754.377c-.231.165-.465.328-.7.488A1.553,1.553,0,0,1,10,11.805,1.892,1.892,0,0,1,9.2,11.052Zm8.878,2.722a.1.1,0,0,0-.145.021.1.1,0,0,0-.018.041A4.06,4.06,0,0,1,15.3,17.168a2.055,2.055,0,0,0-1.231,1.121.093.093,0,0,0,.046.124h0a.057.057,0,0,0,.02.007,7.827,7.827,0,0,0,3.286.01.247.247,0,0,0,.168-.124,17.175,17.175,0,0,0,1.274-2.731,1.666,1.666,0,0,0-.79-1.8Z" transform="translate(0.944 0.05)" fill="none" stroke="#f97316" stroke-miterlimit="10" stroke-width="0.647"/>
                    <path id="Tracé_318" data-name="Tracé 318" d="M13.285,4.114q.5.9-.6,2.013a.636.636,0,0,0-.181.417,1.224,1.224,0,0,1-.7,1.18,1.673,1.673,0,0,1-1.052.074,1.378,1.378,0,0,1-.887-.473q-.34-.482.224-1.253a.5.5,0,0,0,0-.584,1.17,1.17,0,0,1-.067-1.539A1.628,1.628,0,0,1,11.2,3.373a3.274,3.274,0,0,1,1.173.092,1.389,1.389,0,0,1,.91.65m-1.334.09a4.135,4.135,0,0,0-1.036.124q-.482.112-.19.511a1.32,1.32,0,0,1,.041,1.822c-.134.151-.1.239.1.265q.879.11.844-.42a1.21,1.21,0,0,1,.465-1.113,1.836,1.836,0,0,0,.39-.353.474.474,0,0,0-.023-.582.74.74,0,0,0-.592-.254" transform="translate(1.47 0.506)" fill="#f97316"/>
                    <path id="Tracé_319" data-name="Tracé 319" d="M13.285,4.114q.5.9-.594,2.013a.625.625,0,0,0-.181.417,1.228,1.228,0,0,1-.7,1.18,1.674,1.674,0,0,1-1.052.074,1.381,1.381,0,0,1-.888-.473q-.338-.482.226-1.253a.5.5,0,0,0,0-.582,1.175,1.175,0,0,1-.067-1.54,1.635,1.635,0,0,1,1.17-.575,3.266,3.266,0,0,1,1.172.092A1.388,1.388,0,0,1,13.285,4.114Zm-1.334.09a4.135,4.135,0,0,0-1.036.124q-.482.112-.19.511a1.32,1.32,0,0,1,.041,1.822c-.134.151-.1.239.1.265q.879.11.844-.42a1.208,1.208,0,0,1,.465-1.112,1.815,1.815,0,0,0,.391-.353.475.475,0,0,0-.023-.582A.744.744,0,0,0,11.951,4.2Z" transform="translate(1.47 0.506)" fill="none" stroke="#f97316" stroke-miterlimit="10" stroke-width="0.647"/>
                    <path id="Tracé_320" data-name="Tracé 320" d="M4.862,15.664a7.072,7.072,0,0,1,2.59,1.2A21.79,21.79,0,0,1,12.61,22a5.5,5.5,0,0,1,.777,1.961,30.985,30.985,0,0,1,.582,3.574.31.31,0,0,0,.338.28h.018a1.938,1.938,0,0,1,.936.055.172.172,0,0,1,.112.16q.1,4.761.056,9.525c0,.008.007.13.022.366q.036.628-.612.587c-.2-.013-.306-.018-.326-.018h-7.6a.391.391,0,0,1-.442-.333.434.434,0,0,1,0-.109V28.253a.4.4,0,0,1,.344-.451.442.442,0,0,1,.1,0l.587-.021a.1.1,0,0,0,.1-.1.044.044,0,0,0,0-.017,3.725,3.725,0,0,0-1.486-2.337q-1.41-1.046-2.8-2.111a4.612,4.612,0,0,1-1.637-2.37A31.047,31.047,0,0,1,.341,11.028,5.9,5.9,0,0,1,.749,8.966,1.972,1.972,0,0,1,1.4,8.044a.936.936,0,0,1,1.3.232l.006.008a2.473,2.473,0,0,1,.573.944,34.016,34.016,0,0,1,1.448,6.3.165.165,0,0,0,.123.14m2.359,6.561q-.363.621-.786.13c-.219-.253-.334-.387-.346-.4a15.7,15.7,0,0,1-2.953-4.005,1.568,1.568,0,0,1,.485-2.164,1.466,1.466,0,0,1,.177-.1.155.155,0,0,0,.067-.146q-.205-1.609-.516-3.255A12.1,12.1,0,0,0,2.175,8.9q-.259-.5-.5.012a5.794,5.794,0,0,0-.539,2.4,30.374,30.374,0,0,0,1.3,9.127,4.412,4.412,0,0,0,1.711,2.4l.661.467q.856.658,1.723,1.3a4.841,4.841,0,0,1,1.909,3.042.17.17,0,0,0,.167.137l4.434-.014a.107.107,0,0,0,.107-.1v-.013a25.589,25.589,0,0,0-.677-3.857,5.853,5.853,0,0,0-1.337-2.356,26.291,26.291,0,0,0-3.41-3.353,10.889,10.889,0,0,0-1.9-1.219,5.683,5.683,0,0,0-.888-.376,1.565,1.565,0,0,0-1,.094.407.407,0,0,0-.238.465,3.622,3.622,0,0,0,.566,1.273A38.147,38.147,0,0,0,7.2,22.04a.158.158,0,0,1,.022.186m7.4,6.434a.062.062,0,0,0-.062-.062H7.338a.063.063,0,0,0-.062.062v8.952a.063.063,0,0,0,.062.062h7.223a.062.062,0,0,0,.062-.062Z" transform="translate(0.05 1.188)" fill="#464646"/>
                    <path id="Tracé_321" data-name="Tracé 321" d="M4.862,15.664a7.072,7.072,0,0,1,2.59,1.2A21.79,21.79,0,0,1,12.61,22a5.5,5.5,0,0,1,.777,1.961,30.985,30.985,0,0,1,.582,3.574.31.31,0,0,0,.338.28h.018a1.938,1.938,0,0,1,.936.055.172.172,0,0,1,.112.16q.1,4.761.056,9.525c0,.008.007.13.022.366q.036.628-.612.587c-.2-.013-.306-.018-.326-.018h-7.6a.391.391,0,0,1-.442-.333.434.434,0,0,1,0-.109V28.253a.4.4,0,0,1,.344-.451.442.442,0,0,1,.1,0l.587-.021a.1.1,0,0,0,.1-.1.044.044,0,0,0,0-.017,3.725,3.725,0,0,0-1.486-2.337q-1.41-1.046-2.8-2.111a4.612,4.612,0,0,1-1.637-2.37A31.047,31.047,0,0,1,.341,11.028,5.9,5.9,0,0,1,.749,8.966,1.972,1.972,0,0,1,1.4,8.044a.936.936,0,0,1,1.3.232l.006.008a2.473,2.473,0,0,1,.573.944,34.016,34.016,0,0,1,1.448,6.3A.163.163,0,0,0,4.862,15.664Zm2.359,6.561q-.363.621-.786.13c-.219-.253-.335-.387-.348-.4a15.72,15.72,0,0,1-2.952-4.005,1.568,1.568,0,0,1,.482-2.165,1.444,1.444,0,0,1,.176-.1.155.155,0,0,0,.067-.146q-.205-1.609-.516-3.255A12.1,12.1,0,0,0,2.175,8.9q-.259-.5-.5.012a5.794,5.794,0,0,0-.539,2.4,30.374,30.374,0,0,0,1.3,9.127,4.412,4.412,0,0,0,1.711,2.4l.661.467q.856.658,1.723,1.3a4.841,4.841,0,0,1,1.909,3.042.17.17,0,0,0,.167.137l4.434-.014a.107.107,0,0,0,.107-.1v-.013a25.589,25.589,0,0,0-.677-3.857,5.853,5.853,0,0,0-1.337-2.356,26.291,26.291,0,0,0-3.41-3.353,10.889,10.889,0,0,0-1.9-1.219,5.683,5.683,0,0,0-.888-.376,1.565,1.565,0,0,0-1,.094.407.407,0,0,0-.238.465,3.622,3.622,0,0,0,.566,1.273A38.147,38.147,0,0,0,7.2,22.04a.157.157,0,0,1,.024.185Zm7.4,6.435a.062.062,0,0,0-.062-.062H7.338a.063.063,0,0,0-.062.062v8.952a.063.063,0,0,0,.062.062h7.223a.062.062,0,0,0,.062-.062Z" transform="translate(0.05 1.188)" fill="none" stroke="#464646" stroke-miterlimit="10" stroke-width="0.647"/>
                    <path id="Tracé_322" data-name="Tracé 322" d="M23.591,27.754a1.251,1.251,0,0,1,.921.208.218.218,0,0,1,.092.182l.014,10.049a.229.229,0,0,1-.224.231l-8.293.051a.389.389,0,0,1-.443-.325.4.4,0,0,1,0-.117l.041-9.859q0-.4.487-.414l.794-.016c.062,0,.113-.062.124-.147a28.77,28.77,0,0,1,.761-4.143,4.264,4.264,0,0,1,.618-1.359,19.712,19.712,0,0,1,1.969-2.446A21.507,21.507,0,0,1,22.74,17.51a12.836,12.836,0,0,1,2.982-1.759.444.444,0,0,1,.222-.025.371.371,0,0,0,.453-.268.4.4,0,0,0,.012-.1,27.885,27.885,0,0,1,1.4-6.171,2.633,2.633,0,0,1,.483-.817A1.206,1.206,0,0,1,29.07,7.9a1,1,0,0,1,.993.505,3.579,3.579,0,0,1,.566,1.767,29.14,29.14,0,0,1-1.144,10.341,5.9,5.9,0,0,1-.8,1.746,6.707,6.707,0,0,1-1.359,1.294q-1.143.886-2.311,1.739A3.792,3.792,0,0,0,23.5,27.655a.08.08,0,0,0,.062.093.061.061,0,0,0,.029,0m.571-5.211q-.575-.245-.136-.723A29,29,0,0,0,26.709,18.5a6,6,0,0,0,.679-1.351q.243-.684-.519-.694a3.449,3.449,0,0,0-1.9.527,19.268,19.268,0,0,0-5.565,5.176,4.978,4.978,0,0,0-.754,1.573,21.8,21.8,0,0,0-.716,3.92.106.106,0,0,0,.091.12h4.438a.15.15,0,0,0,.14-.114,5.607,5.607,0,0,1,.983-2.173A12.713,12.713,0,0,1,25.9,23.576,12.38,12.38,0,0,0,27.8,22a3.439,3.439,0,0,0,.756-1.319,27,27,0,0,0,1.311-10.12,4.177,4.177,0,0,0-.434-1.635.285.285,0,0,0-.383-.124.281.281,0,0,0-.1.089,3.838,3.838,0,0,0-.536,1.118A32.2,32.2,0,0,0,27.243,15.5a.239.239,0,0,0,.116.235,1.374,1.374,0,0,1,.807,1.465,3.311,3.311,0,0,1-.409,1.18,15.961,15.961,0,0,1-3.4,4.126.185.185,0,0,1-.194.032M23.806,28.7a.1.1,0,0,0-.1-.1H16.567a.1.1,0,0,0-.1.1v8.871a.1.1,0,0,0,.1.1h7.139a.1.1,0,0,0,.1-.1Z" transform="translate(2.362 1.191)" fill="#464646"/>
                    <path id="Tracé_323" data-name="Tracé 323" d="M23.591,27.754a1.256,1.256,0,0,1,.921.208.222.222,0,0,1,.092.183l.014,10.047a.229.229,0,0,1-.224.231l-8.293.051a.387.387,0,0,1-.443-.323.372.372,0,0,1,0-.119l.041-9.857q0-.406.487-.414l.794-.016c.062,0,.113-.062.124-.148a28.754,28.754,0,0,1,.761-4.142,4.27,4.27,0,0,1,.618-1.36,19.8,19.8,0,0,1,1.969-2.446A21.626,21.626,0,0,1,22.74,17.51a12.876,12.876,0,0,1,2.982-1.759.442.442,0,0,1,.222-.024.374.374,0,0,0,.453-.269.4.4,0,0,0,.012-.1,27.806,27.806,0,0,1,1.4-6.171,2.638,2.638,0,0,1,.483-.818A1.21,1.21,0,0,1,29.07,7.9a1.006,1.006,0,0,1,.993.506,3.583,3.583,0,0,1,.566,1.765,29.163,29.163,0,0,1-1.144,10.341,5.89,5.89,0,0,1-.8,1.746,6.72,6.72,0,0,1-1.36,1.295q-1.141.886-2.31,1.738A3.8,3.8,0,0,0,23.5,27.655a.082.082,0,0,0,.062.094A.076.076,0,0,0,23.591,27.754Zm.571-5.211q-.575-.245-.136-.723A28.9,28.9,0,0,0,26.712,18.5a6,6,0,0,0,.679-1.351q.243-.684-.519-.694a3.442,3.442,0,0,0-1.9.527,19.246,19.246,0,0,0-5.566,5.177,4.972,4.972,0,0,0-.754,1.572,21.808,21.808,0,0,0-.716,3.921.105.105,0,0,0,.091.119h4.438a.149.149,0,0,0,.14-.113,5.612,5.612,0,0,1,.983-2.174A12.768,12.768,0,0,1,25.9,23.581,12.37,12.37,0,0,0,27.8,22a3.435,3.435,0,0,0,.756-1.318,27,27,0,0,0,1.311-10.12,4.177,4.177,0,0,0-.434-1.637.285.285,0,0,0-.383-.124.292.292,0,0,0-.1.089,3.852,3.852,0,0,0-.536,1.118A32.1,32.1,0,0,0,27.243,15.5a.24.24,0,0,0,.116.235,1.374,1.374,0,0,1,.807,1.465,3.319,3.319,0,0,1-.409,1.18,15.961,15.961,0,0,1-3.4,4.126.188.188,0,0,1-.193.033ZM23.808,28.7a.1.1,0,0,0-.1-.1H16.566a.1.1,0,0,0-.1.1v8.869a.1.1,0,0,0,.1.1h7.14a.1.1,0,0,0,.1-.1Z" transform="translate(2.362 1.191)" fill="none" stroke="#464646" stroke-miterlimit="10" stroke-width="0.647"/>
                  </g>
                </g>
              </g>
            </g>
          </g>
        </g>
      </g>
    </g>
  </svg>
  