
<svg id="salle" xmlns="http://www.w3.org/2000/svg" xmlns:xlink="http://www.w3.org/1999/xlink" width="52.191" height="47.883" viewBox="0 0 52.191 47.883">
    <defs>
      <clipPath id="clip-path">
        <rect id="Rectangle_227" data-name="Rectangle 227" width="52.191" height="47.883" fill="none"/>
      </clipPath>
    </defs>
    <g id="Groupe_795" data-name="Groupe 795" clip-path="url(#clip-path)">
      <g id="Groupe_794" data-name="Groupe 794" transform="translate(0 0)">
        <g id="Groupe_793" data-name="Groupe 793" clip-path="url(#clip-path)">
          <g id="Groupe_792" data-name="Groupe 792" transform="translate(0 0)" opacity="0.65">
            <g id="Groupe_791" data-name="Groupe 791" transform="translate(0 0)">
              <g id="Groupe_790" data-name="Groupe 790" clip-path="url(#clip-path)">
                <path id="Tracé_292" data-name="Tracé 292" d="M9.674,22.759c-.395,2.163-.789,4.325-1.2,6.563l-1.649-.286c.172-.953.337-1.874.5-2.8.382-2.1.771-4.2,1.144-6.3a.861.861,0,0,1,1.683-.233c.668,1.347,1.349,2.688,2.007,4.039a.6.6,0,0,0,.634.4c1.819-.017,3.64-.006,5.461-.01.686,0,1.106-.335,1.147-.894.039-.529-.314-.925-.965-1.026-1.312-.2-2.627-.4-3.945-.572a1.265,1.265,0,0,1-.994-.664C12.477,19.319,11.419,17.67,10.4,16a2.595,2.595,0,0,0-4.806.409Q4.32,19.652,3.008,22.88a17.178,17.178,0,0,0-1.25,6.269H0c.151-1.206.217-2.413.469-3.577a24.822,24.822,0,0,1,1.07-3.5c.812-2.158,1.69-4.291,2.555-6.431A4.073,4.073,0,0,1,7.58,12.909a4.087,4.087,0,0,1,4.135,2.035q1.476,2.325,2.916,4.675a.848.848,0,0,0,.695.452c1.163.14,2.321.319,3.48.5a2.638,2.638,0,0,1-.379,5.253c-2.135.013-4.27,0-6.406.008a1,1,0,0,1-1-.613c-.4-.829-.822-1.65-1.233-2.473l-.114.017" transform="translate(0 5.271)" fill="#3e3e3e"/>
                <path id="Tracé_293" data-name="Tracé 293" d="M36.377,29.035l-1.624.3c-.407-2.214-.808-4.4-1.237-6.745-.443.879-.854,1.6-1.177,2.363a1.311,1.311,0,0,1-1.421.881c-1.977-.038-3.956-.011-5.933-.013a2.644,2.644,0,1,1-.392-5.274c1.108-.159,2.218-.307,3.32-.5a1.066,1.066,0,0,0,.643-.413c.977-1.514,1.929-3.043,2.875-4.575a4.257,4.257,0,0,1,7.743.695c1.049,2.7,2.155,5.387,3.148,8.109a15.415,15.415,0,0,1,.812,5.288H41.6a34.645,34.645,0,0,0-.761-4.294c-.6-1.983-1.432-3.9-2.176-5.839-.35-.915-.729-1.817-1.088-2.727a2.572,2.572,0,0,0-4.678-.409c-1.053,1.693-2.12,3.377-3.164,5.075a1.313,1.313,0,0,1-1.032.695c-1.318.163-2.633.368-3.945.572a.969.969,0,0,0-.944,1.043.989.989,0,0,0,1.115.872c1.838,0,3.676-.006,5.513.008a.567.567,0,0,0,.6-.369c.651-1.336,1.329-2.658,1.983-3.993.21-.428.478-.755,1-.669.488.08.654.443.736.9.517,2.907,1.051,5.814,1.578,8.72.016.085.023.169.038.3" transform="translate(9.056 5.272)" fill="#3e3e3e"/>
                <path id="Tracé_294" data-name="Tracé 294" d="M13.669,36.412H11.988c0-.437-.007-.868,0-1.3a30.5,30.5,0,0,1,.11-3.666,4.04,4.04,0,0,1,4.01-3.409q5.12-.036,10.24,0a4.126,4.126,0,0,1,4.1,3.863c.078,1.483.016,2.971.016,4.5H28.8c0-1.291.006-2.579,0-3.869A4.061,4.061,0,0,0,28.7,31.6a2.423,2.423,0,0,0-2.316-1.873q-5.146-.03-10.293,0a2.482,2.482,0,0,0-2.42,2.483c-.014.7,0,1.4,0,2.1v2.107" transform="translate(4.906 11.471)" fill="#3e3e3e"/>
                <path id="Tracé_295" data-name="Tracé 295" d="M25.058,25.155a5.053,5.053,0,1,1-10.087.6,5.8,5.8,0,0,1,1.225-4.32,5.042,5.042,0,0,1,8.861,3.247c0,.158,0,.314,0,.472m-8.4-.049c0,.158,0,.314,0,.472a3.376,3.376,0,0,0,3.077,3.336,3.317,3.317,0,0,0,3.564-2.723,7.038,7.038,0,0,0,.061-1.773,3.35,3.35,0,0,0-3.344-3.058,3.4,3.4,0,0,0-3.357,3.746" transform="translate(6.124 8.056)" fill="#3e3e3e"/>
                <path id="Tracé_296" data-name="Tracé 296" d="M34.269,17.019l-1.56.6c-.333-.846-.662-1.652-.961-2.471a.477.477,0,0,0-.534-.359q-9.111.015-18.223,0a.5.5,0,0,0-.571.381c-.29.8-.617,1.594-.948,2.441l-1.573-.6c.466-1.177.908-2.328,1.385-3.464.163-.388.55-.434.939-.433,2.382.007,4.762,0,7.143,0H31.811c.836,0,.977.094,1.281.875.388.989.771,1.98,1.177,3.023" transform="translate(4.052 5.369)" fill="#f97316"/>
                <path id="Tracé_297" data-name="Tracé 297" d="M28.271,14.7H26.629c0-.974.007-1.946,0-2.919a4.812,4.812,0,0,0-.09-1.039,2.436,2.436,0,0,0-2.355-1.893c-2.292-.02-4.586-.024-6.879,0a2.479,2.479,0,0,0-2.433,2.466c-.02,1.116,0,2.234,0,3.378H13.181c0-.242,0-.5,0-.75a26.764,26.764,0,0,1,.1-3.3,4.078,4.078,0,0,1,4.112-3.481q3.334-.025,6.669,0a4.092,4.092,0,0,1,4.186,3.646,34.7,34.7,0,0,1,.027,3.89" transform="translate(5.394 2.927)" fill="#3e3e3e"/>
                <path id="Tracé_298" data-name="Tracé 298" d="M23.969,4.61c0,2.451-1.3,4.153-3.474,4.559a4.2,4.2,0,0,1-4.919-3.884c-.02-.385-.014-.771-.006-1.156a4.2,4.2,0,0,1,8.4.007c0,.158,0,.316,0,.474m-6.721-.047c0,1.573.613,2.55,1.819,2.895a2.455,2.455,0,0,0,3.1-1.7c.42-1.845.048-3.413-1.7-3.976a2.408,2.408,0,0,0-.617-.1,2.552,2.552,0,0,0-2.6,2.879" transform="translate(6.371 0)" fill="#3e3e3e"/>
                <path id="Tracé_299" data-name="Tracé 299" d="M8.413,14.963a4.2,4.2,0,1,1,4.224-4.2,4.207,4.207,0,0,1-4.224,4.2m.008-1.684a2.519,2.519,0,1,0-2.5-2.559,2.53,2.53,0,0,0,2.5,2.559" transform="translate(1.733 2.685)" fill="#3e3e3e"/>
                <path id="Tracé_300" data-name="Tracé 300" d="M31.083,14.963a4.2,4.2,0,1,1,4.215-4.2,4.208,4.208,0,0,1-4.215,4.2m2.534-4.22a2.519,2.519,0,1,0-2.528,2.535,2.526,2.526,0,0,0,2.528-2.535" transform="translate(11.01 2.685)" fill="#3e3e3e"/>
                <path id="Tracé_301" data-name="Tracé 301" d="M7.127,31.915h5.838v1.65c-.137.008-.288.028-.438.028q-2.991,0-5.981,0c-.823,0-1.1-.279-1.1-1.1,0-.017,0-.034,0-.052A11.385,11.385,0,0,1,6.572,26.3c.558-1.16.956-2.4,1.45-3.66l1.557.609c-.193.5-.372.965-.554,1.432-.495,1.27-.927,2.566-1.505,3.8a8.183,8.183,0,0,0-.393,3.435" transform="translate(2.206 9.269)" fill="#f97316"/>
                <path id="Tracé_302" data-name="Tracé 302" d="M26.315,33.591V31.922h5.857a8.6,8.6,0,0,0-.372-3.389c-.757-1.705-1.38-3.471-2.082-5.271l1.559-.614c.137.35.261.671.386.991.593,1.514,1.166,3.036,1.788,4.537a4.953,4.953,0,0,1,.413,2.187c-.037.768,0,1.54-.011,2.31a.824.824,0,0,1-.864.913c-2.206.013-4.41.006-6.675.006" transform="translate(10.772 9.271)" fill="#f97316"/>
              </g>
            </g>
          </g>
        </g>
      </g>
    </g>
  </svg>
  