<svg xmlns="http://www.w3.org/2000/svg" xmlns:xlink="http://www.w3.org/1999/xlink" width="40.576" height="37.126" viewBox="0 0 40.576 37.126"><script xmlns="" id="nimlmejbmnecnaghgmbahmbaddhjbecg"/><script xmlns=""/><script xmlns=""/><script xmlns=""/>
    <defs>
      <clipPath id="clip-path">
        <rect id="Rectangle_217" data-name="Rectangle 217" width="40.576" height="37.126" transform="translate(0 0)" fill="none"/>
      </clipPath>
    </defs>
    <g id="secondaire" transform="translate(0 0)">
      <g id="Groupe_780" data-name="Groupe 780" clip-path="url(#clip-path)">
        <path id="Tracé_281" data-name="Tracé 281" d="M36.321,19.463,19.538,2.68a1.417,1.417,0,0,0-2,0L.75,19.463" fill="none" stroke="#3e3e3e" stroke-linecap="round" stroke-linejoin="round" stroke-width="1.5"/>
        <path id="Tracé_282" data-name="Tracé 282" d="M32.421,18.9V36.376H4.009V19.539" fill="none" stroke="#3e3e3e" stroke-linecap="round" stroke-linejoin="round" stroke-width="1.5"/>
        <path id="Tracé_283" data-name="Tracé 283" d="M22.723,36.376H13.7V25.785a3.673,3.673,0,0,1,3.674-3.67h1.671a3.674,3.674,0,0,1,3.674,3.674Z" fill="none" stroke="#3e3e3e" stroke-linecap="round" stroke-linejoin="round" stroke-width="1.5"/>
        <path id="Tracé_284" data-name="Tracé 284" d="M4.008,11.6V5.591H9.489V7.324" fill="none" stroke="#3e3e3e" stroke-linecap="round" stroke-linejoin="round" stroke-width="1.5"/>
        <line id="Ligne_24" data-name="Ligne 24" y1="1.941" transform="translate(30.634 0.75)" fill="none" stroke="#3e3e3e" stroke-linecap="round" stroke-linejoin="round" stroke-width="1.5"/>
        <line id="Ligne_25" data-name="Ligne 25" x1="0.743" y1="1.793" transform="translate(27.116 1.45)" fill="none" stroke="#3e3e3e" stroke-linecap="round" stroke-linejoin="round" stroke-width="1.5"/>
        <line id="Ligne_26" data-name="Ligne 26" x1="1.373" y1="1.373" transform="translate(24.134 3.442)" fill="none" stroke="#3e3e3e" stroke-linecap="round" stroke-linejoin="round" stroke-width="1.5"/>
        <line id="Ligne_27" data-name="Ligne 27" x2="1.373" y2="1.373" transform="translate(35.761 15.069)" fill="none" stroke="#3e3e3e" stroke-linecap="round" stroke-linejoin="round" stroke-width="1.5"/>
        <line id="Ligne_28" data-name="Ligne 28" x2="1.793" y2="0.743" transform="translate(37.333 12.717)" fill="none" stroke="#3e3e3e" stroke-linecap="round" stroke-linejoin="round" stroke-width="1.5"/>
        <line id="Ligne_29" data-name="Ligne 29" x2="1.941" transform="translate(37.884 9.942)" fill="none" stroke="#3e3e3e" stroke-linecap="round" stroke-linejoin="round" stroke-width="1.5"/>
        <line id="Ligne_30" data-name="Ligne 30" y1="0.743" x2="1.793" transform="translate(37.333 6.424)" fill="none" stroke="#3e3e3e" stroke-linecap="round" stroke-linejoin="round" stroke-width="1.5"/>
        <line id="Ligne_31" data-name="Ligne 31" y1="1.373" x2="1.373" transform="translate(35.761 3.442)" fill="none" stroke="#3e3e3e" stroke-linecap="round" stroke-linejoin="round" stroke-width="1.5"/>
        <line id="Ligne_32" data-name="Ligne 32" y1="1.793" x2="0.743" transform="translate(33.408 1.45)" fill="none" stroke="#3e3e3e" stroke-linecap="round" stroke-linejoin="round" stroke-width="1.5"/>
        <path id="Tracé_285" data-name="Tracé 285" d="M34.042,13.355a4.826,4.826,0,1,0-6.82-6.83" fill="none" stroke="#3e3e3e" stroke-linecap="round" stroke-linejoin="round" stroke-width="1.5"/>
      </g>
    </g>
  <script xmlns=""/>
</svg>