
<svg xmlns="http://www.w3.org/2000/svg" xmlns:xlink="http://www.w3.org/1999/xlink" width="60.655" height="54.656" viewBox="0 0 60.655 54.656">
    <defs>
      <clipPath id="clip-path">
        <rect id="Rectangle_289" data-name="Rectangle 289" width="60.655" height="54.657" fill="none" stroke="#707070" stroke-width="3"/>
      </clipPath>
    </defs>
    <g id="storm" transform="translate(0 0)" opacity="0.6">
      <g id="Groupe_720" data-name="Groupe 720" transform="translate(0 0)" clip-path="url(#clip-path)">
        <path id="Tracé_796" data-name="Tracé 796" d="M15.2,35.173c-.566.011-1.143,0-1.709,0-2.7,0-5.16.2-7.557-1.266a9.736,9.736,0,0,1-1.176-.842c-.368-.3-.766-.921-1.177-1.122A12.056,12.056,0,0,1,1.371,28.06a10.757,10.757,0,0,1-.409-1.787,10.233,10.233,0,0,1-.1-1.442A10.674,10.674,0,0,1,11.537,14.155c.177,0,.355,0,.532.013A10.684,10.684,0,0,1,27.006,7.952a10.675,10.675,0,0,1,20.73,3.585,10.237,10.237,0,0,1-.256,2.286h.256a10.661,10.661,0,0,1,10.62,9.643c.032.334.056.689.056,1.031a10.555,10.555,0,0,1-3.319,7.558,11.508,11.508,0,0,1-3.561,2.319,15.827,15.827,0,0,1-6.37.876" transform="translate(0.691 0.691)" fill="none" stroke="#3e3e3e" stroke-linecap="round" stroke-linejoin="round" stroke-width="3"/>
        <path id="Tracé_797" data-name="Tracé 797" d="M22.7,10.562h14.32L26.34,21.245h8.41L11.624,44.372l8.579-16.9H12.2Z" transform="translate(9.335 8.482)" fill="none" stroke="#a1c84e" stroke-linecap="round" stroke-linejoin="round" stroke-width="3"/>
      </g>
    </g>
  </svg>
  