<svg xmlns="http://www.w3.org/2000/svg" xmlns:xlink="http://www.w3.org/1999/xlink" width="39.38" height="23.927" viewBox="0 0 39.38 23.927"><script xmlns="" id="nimlmejbmnecnaghgmbahmbaddhjbecg"/><script xmlns=""/><script xmlns=""/><script xmlns=""/>
    <defs>
      <clipPath id="clip-path">
        <rect id="Rectangle_203" data-name="Rectangle 203" width="39.38" height="23.927" transform="translate(0 0)" fill="none"/>
      </clipPath>
    </defs>
    <g id="studio" transform="translate(0 0)">
      <g id="Groupe_748" data-name="Groupe 748" clip-path="url(#clip-path)">
        <path id="Tracé_223" data-name="Tracé 223" d="M4.94,7.3V1.715A1.057,1.057,0,0,1,6.074.75H33.306a1.054,1.054,0,0,1,1.125.965V7.3" fill="none" stroke="#3e3e3e" stroke-linecap="round" stroke-linejoin="round" stroke-width="1.5"/>
        <rect id="Rectangle_201" data-name="Rectangle 201" width="2.737" height="0.762" transform="translate(2.593 22.415)" fill="none" stroke="#3e3e3e" stroke-linecap="round" stroke-linejoin="round" stroke-width="1.5"/>
        <rect id="Rectangle_202" data-name="Rectangle 202" width="2.737" height="0.762" transform="translate(34.307 22.415)" fill="none" stroke="#3e3e3e" stroke-linecap="round" stroke-linejoin="round" stroke-width="1.5"/>
        <path id="Tracé_224" data-name="Tracé 224" d="M6.659,14.856v1.388H32.713V8.253A1.057,1.057,0,0,1,33.846,7.3H37.5a1.053,1.053,0,0,1,1.134.956V21.459a1.053,1.053,0,0,1-1.134.956H1.875A1.05,1.05,0,0,1,.75,21.459V8.253A1.05,1.05,0,0,1,1.875,7.3h3.65a1.053,1.053,0,0,1,1.134.956v6.6Z" fill="none" stroke="#3e3e3e" stroke-linecap="round" stroke-linejoin="round" stroke-width="1.5"/>
        <path id="Tracé_225" data-name="Tracé 225" d="M32.712,13.577v1.55a1.114,1.114,0,0,1-.983,1.116.413.413,0,0,1-.151.018H20.824a.407.407,0,0,1-.151-.018,1.114,1.114,0,0,1-.983-1.116v-1.55a1.131,1.131,0,0,1,1.134-1.134H31.578A1.131,1.131,0,0,1,32.712,13.577Z" fill="none" stroke="#3e3e3e" stroke-linecap="round" stroke-linejoin="round" stroke-width="1.5"/>
        <path id="Tracé_226" data-name="Tracé 226" d="M19.69,13.577v1.55a1.122,1.122,0,0,1-.983,1.116.435.435,0,0,1-.151.018H7.793a.41.41,0,0,1-.151-.018,1.114,1.114,0,0,1-.983-1.116v-1.55a1.131,1.131,0,0,1,1.134-1.134H18.556A1.136,1.136,0,0,1,19.69,13.577Z" fill="none" stroke="#3e3e3e" stroke-linecap="round" stroke-linejoin="round" stroke-width="1.5"/>
      </g>
    </g>
  <script xmlns=""/>
</svg>