
<svg xmlns="http://www.w3.org/2000/svg" xmlns:xlink="http://www.w3.org/1999/xlink" width="69.646" height="49.137" viewBox="0 0 69.646 49.137">
    <defs>
      <clipPath id="clip-path">
        <rect id="Rectangle_290" data-name="Rectangle 290" width="69.646" height="49.137" fill="none" stroke="#707070" stroke-width="3"/>
      </clipPath>
    </defs>
    <g id="vol" transform="translate(0 0)" opacity="0.65">
      <g id="Groupe_721" data-name="Groupe 721" transform="translate(0 0)" clip-path="url(#clip-path)">
        <path id="Tracé_798" data-name="Tracé 798" d="M44.748,21.094A167.732,167.732,0,0,1,25.56,22.1,167.732,167.732,0,0,1,6.371,21.094l.589-6.871.147-1.644L8.04,1.733A18.594,18.594,0,0,1,14.068.867c5.077.125,6.424,2.341,10.968,2.309,3.548-.022,3.96-1.381,8.372-2.019a24.582,24.582,0,0,1,9.67.577q.467,5.422.932,10.846l.147,1.644Z" transform="translate(9.262 1.252)" fill="none" stroke="#3e3e3e" stroke-linecap="round" stroke-linejoin="round" stroke-width="3"/>
        <path id="Tracé_799" data-name="Tracé 799" d="M52.465,7.714c8.367.982,13.815,2.527,13.815,4.27,0,1.718-5.2,3.239-13.25,4.171a171.316,171.316,0,0,1-19.458,1.031,171.316,171.316,0,0,1-19.458-1.031C6.064,15.223.862,13.7.862,11.984c0-1.742,5.447-3.288,13.815-4.27" transform="translate(1.253 11.213)" fill="none" stroke="#3e3e3e" stroke-linecap="round" stroke-linejoin="round" stroke-width="3"/>
        <path id="Tracé_800" data-name="Tracé 800" d="M48.493,20.1c-5.85,5.862-10.006,6.657-12.782,6.206-4.036-.655-5.119-3.941-9.383-4.041-4.483-.106-5.8,3.438-10.1,3.754-2.473.182-6.073-.709-10.74-5.774V14.179h43.01Z" transform="translate(7.971 20.612)" fill="none" stroke="#a1c84e" stroke-linecap="round" stroke-linejoin="round" stroke-width="3"/>
      </g>
    </g>
  </svg>
  